<?xml version="1.0" encoding="utf-8"?>
<!-- Generator: Adobe Illustrator 27.2.0, SVG Export Plug-In . SVG Version: 6.00 Build 0)  -->
<svg version="1.1" id="レイヤー_1" xmlns="http://www.w3.org/2000/svg" xmlns:xlink="http://www.w3.org/1999/xlink" x="0px"
	 y="0px" viewBox="0 0 700 470" style="enable-background:new 0 0 700 470;" xml:space="preserve">
<style type="text/css">
	.st0{fill:#FFFFFF;}
</style>
<g>
	<path class="st0" d="M144.5,6.3c2.4,0,4.9-0.2,6.8-0.2c1.2,0,1.3,0.5,1.3,2.3c0,1.8-0.1,2.2-1.3,2.2c-2,0-4.5-0.2-6.8-0.2h-33.3
		c-1.1,0-1.7,0.5-1.7,1.7v12c0,8.1-0.5,16.8-3.4,24.5c-0.6,1.8-1.5,3.8-2.5,3.8c-0.9,0-3.6-1.2-3.6-2.2c0-0.4,0.3-0.8,0.5-1.1
		c1.2-2,2.5-6.3,3-8.6c1.2-5.3,1.5-11.3,1.5-16.7V14c0-1.7-0.1-3.5-0.1-5.2c0-2.3,1.1-2.7,3.2-2.7c1.8,0,3.7,0.1,5.5,0.1h10
		c1.1,0,1.5-0.4,1.6-1.5c0-1-0.1-2-0.2-3V1.2c0-0.6,0.4-0.8,1-0.8s4,0.3,4.7,0.4c0.4,0.1,0.9,0.2,0.9,0.7c0,0.4-0.3,0.5-0.8,0.8
		c-0.6,0.5-0.6,1.1-0.7,2.4c0.1,1.1,0.6,1.5,1.7,1.5H144.5z M116.1,32c-0.4,0-2.8-0.4-2.8-1.6c0-0.4,2.7-5.7,3.1-6.5
		c0.4-0.8,2.3-4.6,2.3-5.2c0-0.7-0.6-0.6-1.2-0.6H116c-1.5,0-2.9,0.1-3.2,0.1c-1.1,0-1.1-0.7-1.1-2.1c0-1.4,0-2.1,1.1-2.1
		c0.3,0,1.7,0.1,3.2,0.1h1.5c1.2,0,2.4-0.1,3.5-0.1c2.3,0,3.3,1.6,3.3,2.4c0,0.9-3.4,7.8-4.1,9.1c-0.1,0.2-0.2,0.3-0.2,0.5
		c0,0.6,0.5,0.8,1.1,0.9c1.1,0,2.1-0.1,3.2-0.1c2.5,0,2.9,2.2,2.9,3c0,2.9-2.5,9-4,11.6c-0.2,0.4-0.3,0.6-0.3,1
		c0,0.6,0.3,0.9,0.7,1.2c5.1,3.6,10.4,3.9,16.1,3.9h3.8c2.9,0,5.8-0.3,8.8-0.3c0.9,0,1.1,0.7,1.1,1.5c0,3.4-1.8,3.2-4.4,3.2h-8.4
		c-7.6,0-13.2-0.2-19.6-4.8c-0.4-0.2-0.6-0.4-1.1-0.4c-0.5,0-0.8,0.2-1.2,0.6c-1.3,1.2-6.4,5.5-8.1,5.5c-1,0-2.6-1.8-2.6-2.7
		c0-0.6,0.6-0.9,1.7-1.5c2.1-1.2,4.1-2.7,5.8-4.4c0.4-0.3,0.6-0.7,0.6-1.2c0-0.4-0.2-0.8-0.4-1.1c-0.9-1.1-4-5.9-4-7.1
		c0-1.1,2.2-1.9,2.9-1.9s0.8,0.5,1.4,1.6c0.6,1.4,1.4,2.6,2.2,3.8c0.2,0.3,0.5,0.5,0.8,0.5c0.4,0,0.6-0.3,0.8-0.6
		c0.6-1.3,2.4-5.4,2.4-6.7c0-0.7-0.9-0.6-2.4-0.6h-1.7c-0.6,0-1.2,0.5-1.7,0.9C116.6,32,116.5,32,116.1,32z M142.9,36.1
		c0,1.1,0.5,1.6,1.7,1.6h0.3c1.8,0,3.7-0.1,5.5-0.1c1.4,0,1.3,0.8,1.3,2.2s0,2.2-1.3,2.2c-1.9,0-3.7-0.1-5.5-0.1h-8.5
		c-1.8,0-3.7,0.1-5.5,0.1c-1.3,0-1.3-0.7-1.3-2.2c0-1.8,0.1-2.2,1.7-2.2c1,0,2.6,0.1,5.1,0.1h0.4c1.1,0,1.7-0.5,1.7-1.6v-4.5
		c0-1.2-0.5-1.7-1.7-1.7h-0.9c-1.9,0-4,0.1-5.9,0.1c-1.2,0-1.3-0.7-1.3-2.2c0-1.5,0.1-2.1,1.3-2.1c1.9,0,4,0.1,5.9,0.1h0.9
		c1.2,0,1.7-0.5,1.7-1.7v-2.8c0-0.8-0.4-1.4-1.3-1.4h-0.2c-1.5,0.2-5,0.6-6.4,0.6c-1.4,0-1.7-2.1-1.7-3.1c0-1.2,0.6-1.2,2.2-1.2
		c5-0.2,12.9-1.2,17.5-2.9c0.2-0.1,0.6-0.2,0.8-0.2c0.5,0,3.2,3.5,3.2,4.2c0,0.3-0.3,0.5-0.6,0.5c-0.2,0-0.5-0.1-0.7-0.1
		c-0.2-0.1-0.5-0.2-0.7-0.2s-5.1,1.2-6,1.4c-1.2,0.3-1.5,0.7-1.6,1.9v3.5c0,1.2,0.5,1.7,1.7,1.7h1.7c1.9,0,3.9-0.1,5.9-0.1
		c1.2,0,1.2,0.6,1.2,2.1c0,1.5,0,2.2-1.2,2.2c-2,0-4-0.1-5.9-0.1h-1.7c-1.1,0-1.7,0.5-1.7,1.7V36.1z"/>
	<path class="st0" d="M201.4,12.8c3.9,3.9,5.8,8.8,5.8,14.3c0,8.1-4.2,15-11.4,18.8c-1.2,0.6-4.8,2.2-6.1,2.2
		c-1.2,0-3.3-2.8-3.3-3.8c0-0.6,0.9-0.7,1.5-0.8c8-1.7,14-7.5,14-16c0-6.8-3.8-12.9-10.5-15c-0.5-0.2-1.9-0.5-2.5-0.5
		c-1.5,0-1.5,1.3-1.6,2.4c-0.5,8.7-2.7,19.6-8.4,26.5c-1.8,2.2-4.3,4.3-7.4,4.3c-3.4,0-6.1-2.5-7.5-5.3c-1.2-2.4-1.8-5.5-1.8-8.2
		c0-13.6,10.4-24.5,24.1-24.5C192.1,7.1,197.2,8.8,201.4,12.8z M179.3,13.2c-7.6,3.1-12.1,10-12.1,18.2c0,2.6,0.9,8.6,4.4,8.6
		c3.2,0,6.3-6.2,7.3-8.8c2.1-5.7,3.5-11.6,3.5-17.4c0-0.6-0.3-1.2-0.9-1.2C180.9,12.5,179.8,13,179.3,13.2z"/>
	<path class="st0" d="M222.7,14c-1.8,0-3.5,0.1-5.4,0.1c-1.2,0-1.2-0.8-1.2-2.1c0-1.4,0-2.1,1.2-2.1c1.8,0,3.6,0.1,5.4,0.1h8.8
		c1.8,0,3.5-0.1,5.3-0.1c1.3,0,1.2,0.8,1.2,2.1c0,1.3,0.1,2.1-1.2,2.1c-1.8,0-3.6-0.1-5.4-0.1H222.7z M225.1,49.2
		c-1.3,0-1.6,0.6-1.6,1.8c-0.1,1.2-0.4,1.3-2.5,1.3c-1.4,0-2.1,0-2.1-1.2V38.2c0-0.8-0.1-1.5-0.1-2.3c0-1.8,0.8-2.4,2.6-2.4
		c0.9,0,1.8,0.1,2.7,0.1h6.1c0.9,0,1.7-0.1,2.4-0.1c1.6,0,2.6,0.5,2.6,2.3c0,0.8-0.1,1.6-0.1,2.4v7.6c0,1.1,0.1,2.3,0.1,3.5
		c0,1.3-0.6,1.5-2.3,1.5c-1.3,0-1.9-0.1-2.1-0.7c-0.2-0.8-0.7-0.8-1.5-0.8H225.1z M224.4,29.8c-1.4,0-2.7,0.1-3.8,0.1
		c-1.2,0-1.2-0.9-1.2-2.1c0-1.2-0.1-2.1,1.2-2.1c1,0,2.4,0.1,3.8,0.1h5.7c1.4,0,2.8-0.1,3.8-0.1c1.2,0,1.2,0.9,1.2,2.1
		c0,1.7-0.2,2.1-1.4,2.1c-0.8,0-1.9-0.1-3.6-0.1H224.4z M224.4,21.9c-1.4,0-2.8,0.1-3.8,0.1c-1.3,0-1.2-1-1.2-2.1
		c0-1.7,0.1-2.1,1.5-2.1c0.7,0,1.8,0.1,3.5,0.1h5.7c1.4,0,2.7-0.1,3.8-0.1c1.2,0,1.2,0.9,1.2,2.1c0,1.2,0.1,2.1-1.2,2.1
		c-1.2,0-2.4-0.1-3.8-0.1H224.4z M224.9,6.3c-1.4,0-3,0.1-4.2,0.1c-1.4,0-1.2-0.9-1.2-2.2c0-1.4-0.1-2.1,1.3-2.1
		c1.1,0,2.7,0.1,4.1,0.1h4.8c1.5,0,3-0.1,4.2-0.1c1.3,0,1.2,0.8,1.2,2.1c0,1.4,0.1,2.2-1.2,2.2c-1.2,0-2.8-0.1-4.2-0.1H224.9z
		 M223.5,43.7c0,1,0.6,1.5,1.6,1.7h4.1c1-0.1,1.6-0.6,1.6-1.7V39c0-1-0.6-1.5-1.6-1.7h-4.1c-1,0.1-1.6,0.6-1.6,1.7V43.7z
		 M251.6,45.6c-0.4,0-0.8,0.2-1.2,0.5c-3,2.2-7,4.5-10.4,5.8c-0.5,0.2-1.5,0.5-2,0.5c-1.1,0-2.4-2-2.4-3c0-0.9,0.9-1.1,1.7-1.4
		c3.4-1.4,6.9-3.1,10-5.2c0.4-0.3,0.6-0.6,0.6-1.1c0-0.4-0.2-0.7-0.4-1.1c-2.2-3.1-3.5-5.8-4.8-9.4c-0.4-0.9-0.8-1.2-1.7-1.2h-1.3
		c-1.2,0-1.3-0.5-1.3-2.3c0-1.8,0.1-2.3,1.3-2.3c2.1,0,4.2,0.1,6.3,0.1h10c1.5,0,2.9-0.1,4.5-0.1c2.2,0,3.4,2.1,3.4,3
		c0,0.8-0.9,2.5-1.3,3.3c-1.8,3.3-4,6.5-6.5,9.3c-0.2,0.3-0.5,0.6-0.5,1c0,0.5,0.3,0.8,0.6,1.1c3.2,2.2,6.7,3.7,10.5,4.7
		c0.7,0.2,1.5,0.4,1.5,1.2c0,0.7-0.9,3.2-2.2,3.2c-0.4,0-1.3-0.3-1.8-0.5c-4.4-1.4-7.6-2.9-11.3-5.7
		C252.5,45.8,252.1,45.6,251.6,45.6z M244.8,18c-0.8,1.2-3.8,5-5.2,5c-0.8,0-2.7-1.8-2.7-2.7c0-0.4,0.4-0.8,0.6-1
		c4.7-3.8,5.4-6.5,5.4-12.4c0-0.7-0.1-1.4-0.1-2.1c0-2.2,0.4-2.9,2.7-2.9c0.8,0,1.5,0.1,2.2,0.1h5.4c0.8,0,1.5-0.1,2.3-0.1
		c2.1,0,2.5,0.7,2.5,2.7v9.7c0,1.7-0.1,2.8,1.5,2.8h2.4c1.2,0,2-0.4,2.4-5.2c0.1-0.7,0.2-1.3,1.5-1.3c1.1,0,2.7,0.4,2.7,1.7
		c0,1.7-0.5,4.1-1.1,5.7c-1.1,2.9-2.2,3.5-5.2,3.5h-4.6c-3.8,0-4.2-2.1-4.2-5c0-0.9,0.1-1.9,0.1-2.9V8c0-1.2-0.5-1.7-1.7-1.7H249
		c-1.1,0-1.7,0.4-1.7,1.5C247.2,11.9,247,14.5,244.8,18z M251.8,38.4c0.5,0,0.7-0.2,1-0.5c1-1.1,4.9-6.1,4.9-7.4
		c0-0.6-0.5-0.7-1.7-0.7h-7.7c-0.6,0.1-1.2,0.2-1.2,1c0,0.2,0.1,0.3,0.1,0.5c0.9,2.5,1.9,4.4,3.5,6.5
		C251,38.2,251.3,38.4,251.8,38.4z"/>
	<path class="st0" d="M282.4,14.2c-1.9,0-3.9,0.1-5.9,0.1c-1.4,0-1.4-0.6-1.4-2.1c0-1.5,0.1-2.1,1.4-2.1c2,0,4,0.1,5.9,0.1h10.3
		c1.9,0,3.9-0.1,5.9-0.1c1.4,0,1.4,0.5,1.4,2.1c0,1.5,0.1,2.1-1.4,2.1c-2,0-4-0.1-5.9-0.1H282.4z M292.2,50.8c0-0.8-0.4-1.1-1.2-1.1
		h-7.6c-0.8,0-1.1,0.3-1.2,1.1c0,0.2,0.1,0.3,0.1,0.5c0,1.3-0.5,1.4-2.4,1.4c-1.8,0-2.3-0.1-2.3-1.4c0-1.3,0.1-2.5,0.1-3.8v-7.7
		c0-1.1-0.1-2.2-0.1-3.2c0-2.3,1.2-2.7,3.2-2.7c0.8,0,1.6,0.1,2.5,0.1h7.9c0.9,0,1.9-0.1,2.9-0.1c1.9,0,2.7,0.7,2.7,2.7
		c0,1.1-0.1,2.1-0.1,3.2v7.7c0,1.3,0.1,2.5,0.1,3.8c0,1.2-0.5,1.4-2.3,1.4c-1.8,0-2.4-0.1-2.4-1.3V50.8z M284.2,6.3
		c-1.6,0-3.2,0.1-4.9,0.1c-1.4,0-1.4-0.6-1.4-2.1c0-1.4,0-2.1,1.4-2.1c1.7,0,3.3,0.1,4.9,0.1h6.7c1.6,0,3.2-0.1,4.9-0.1
		c1.4,0,1.4,0.7,1.4,2.1c0,1.4,0.1,2.1-1.4,2.1c-1.7,0-3.3-0.1-4.9-0.1H284.2z M284,22.1c-1.5,0-3.1,0.1-4.5,0.1
		c-1.4,0-1.4-0.7-1.4-2.1c0-1.4,0-2.1,1.4-2.1c1.4,0,3,0.1,4.5,0.1h7c1.5,0,3.1-0.1,4.5-0.1c1.4,0,1.4,0.8,1.4,2.1
		c0,1.3,0.1,2.1-1.4,2.1c-1.5,0-3-0.1-4.5-0.1H284z M284.5,30c-1.7,0-3.3,0.1-5,0.1c-1.4,0-1.4-0.6-1.4-2.1c0-1.5,0-2.1,1.4-2.1
		c1.7,0,3.3,0.1,5,0.1h6c1.7,0,3.3-0.1,4.9-0.1c1.5,0,1.4,0.7,1.4,2.1c0,1.4,0.1,2.1-1.4,2.1c-1.7,0-3.3-0.1-4.9-0.1H284.5z
		 M290.7,45.6c0.9,0,1.6-0.6,1.6-1.7v-4.4c0-1-0.6-1.5-1.6-1.7h-6.8c-1,0-1.5,0.6-1.7,1.7V44c0.1,1,0.6,1.7,1.7,1.7H290.7z
		 M315.4,17.3c0,1.1,0.5,1.6,1.7,1.6h2.9c2.1,0,4.1-0.1,6.2-0.1c1.3,0,1.4,0.7,1.4,2.4s-0.1,2.4-1.4,2.4c-2.1,0-4.1-0.1-6.2-0.1H317
		c-1.1,0-1.7,0.5-1.7,1.7v16.7c0,2.8,0.2,5.7,0.2,8.6c0,2.1-0.5,2.2-2.6,2.2c-2,0-2.6-0.2-2.6-2.2c0-2.9,0.2-5.8,0.2-8.6V25.2
		c0-1.2-0.5-1.7-1.7-1.7h-2.2c-2.1,0-4.1,0.1-6.2,0.1c-1.3,0-1.3-0.7-1.3-2.4s0-2.4,1.3-2.4c2.1,0,4.1,0.1,6.2,0.1h2.2
		c1.2,0,1.7-0.5,1.7-1.6V7c0-1.8,0-3.8-0.2-5.4c-0.1-0.2-0.1-0.4-0.1-0.6c0-0.6,0.4-0.8,1-0.8c0.5,0,1.7,0.1,2.3,0.2
		c0.4,0.1,0.7,0.1,1.1,0.1c1.4,0.1,2.3,0.2,2.3,0.9c0,0.4-0.3,0.5-0.8,0.9c-0.7,0.4-0.8,1.5-0.8,3.8V17.3z"/>
	<path class="st0" d="M345.5,26.4c0,3.4-2.3,6.3-6.3,6.3c-3.2,0-5.7-2.2-5.7-5.4c0-3.4,2.2-6.4,6.4-6.4
		C343.1,20.8,345.5,23,345.5,26.4z"/>
	<path class="st0" d="M360.6,5.4c0-1.4,0-2.7-0.2-4V0.8c0-0.6,0.5-0.8,1.1-0.8c0.8,0,2.5,0.2,3.4,0.2c0.9,0.1,2.1,0.1,2.1,0.8
		c0,0.4-0.4,0.6-0.8,0.9c-0.8,0.5-0.8,1-0.8,5v0.8c0,1.2,0.5,1.7,1.7,1.7h0.6c1.8,0,3.7-0.1,5.2-0.1c1.3,0,1.2,0.7,1.2,2.3
		c0,1.7,0.1,2.3-1.2,2.3c-1.5,0-3.4-0.1-5.2-0.1h-4.7c-0.1,0-0.2,0.1-0.2,0.1s0.4,0.1,0.4,0.1c0.5,0.1,0.9,0.2,0.9,0.7
		c0,0.5-0.3,0.6-0.8,0.9c-0.8,0.5-0.8,1.2-0.8,4.2c0,1.2,0.5,1.7,1.7,1.7h3.1c0.8,0,1.7-0.1,2.5-0.1c2.2,0,2.8,1,2.8,3.1
		c0,4.8-0.6,17-1.5,21.5c-0.9,4.9-2.2,6.5-7.3,6.5c-2.1,0-3.3,0.1-3.3-3.8c0-0.6,0-1.2,0.6-1.2c0.6,0,1.9,0.2,2.7,0.2
		c1.8,0,2.4-1.1,2.7-2.7c0.9-4.2,1.4-12.2,1.4-16.6c0-2.4,0-2.5-2.2-2.5h-1.9c-1.1,0-1.6,0.4-1.7,1.5c-0.6,7.6-2.3,16.5-5.8,23.3
		c-0.3,0.6-0.7,1.4-1.5,1.4c-1.1,0-3.3-1.8-3.3-2.7c0-0.3,0.2-0.6,0.4-0.9c1.7-2.6,2.9-6.5,3.8-9.6c1.5-5.7,2.2-11.6,2.2-17.5v-1.1
		c0-1.7,0.1-3.2-0.2-4.8c-0.1-1-0.4-1.6-1.5-1.7c-0.8,0-1.7,0.1-2.5,0.1c-1.2,0-1.2-0.7-1.2-2.3s0-2.3,1.2-2.3
		c1.6,0,3.5,0.2,5.3,0.1c1.1,0,1.6-0.5,1.6-1.7V5.4z M375.7,19.1c-0.3,0.4-0.6,0.8-1.2,0.8c-0.9,0-3.1-1.1-3.1-2.1
		c0-0.4,0.5-1,0.8-1.3c3.2-4.5,5.7-9.6,7.3-15c0.2-0.5,0.3-1.1,0.9-1.1c0.5,0,2.3,0.6,2.9,0.8c0.7,0.2,1.9,0.5,1.9,1.1
		c0,0.4-0.5,0.6-0.8,0.7c-0.8,0.2-0.9,0.6-1.2,1.7c-0.1,0.4-0.4,1-0.6,1.8c-0.1,0.2-0.1,0.4-0.1,0.5c0,0.9,0.9,0.9,1.1,0.9H397
		c2.1,0,4.2-0.1,6.2-0.1c1.2,0,1.3,0.5,1.3,2.2s-0.1,2.2-1.3,2.2c-1.9,0-4.1-0.1-6.2-0.1h-15.4c-1.2,0-1.7,0.2-2.3,1.3
		C378.3,15.3,377,17.4,375.7,19.1z M377.5,33.3c0-0.6-0.2-1.1-0.9-1.1c-0.1,0-0.3,0.1-0.4,0.1c-0.4,0.1-1.1,0.4-1.5,0.4
		c-1,0-1.4-3.2-1.4-3.5c0-0.7,0.6-0.8,1.9-1.1c0.3-0.1,0.6-0.1,1.1-0.2c1-0.3,1.3-0.8,1.3-1.8v-4c0-1.1-0.1-2.2-0.2-3.4
		c0-0.2-0.1-0.4-0.1-0.6c0-0.6,0.4-0.7,0.9-0.7c0.5,0,3.7,0.3,4.2,0.4c0.4,0.1,0.8,0.1,0.8,0.6c0,0.4-0.3,0.5-0.7,0.8
		c-0.8,0.5-0.8,1.8-0.8,4.7v0.9c0.1,0.6,0.3,1.2,1.1,1.2c0.1,0,0.3,0,0.4-0.1l2-0.6c1-0.3,1.3-0.7,1.3-1.8v-3.2c0-1.4,0-2.9-0.2-4.2
		c-0.1-0.2-0.1-0.4-0.1-0.5c0-0.6,0.4-0.8,0.9-0.8c0.8,0,3.2,0.2,4,0.3c0.4,0.1,1.2,0.1,1.2,0.7c0,0.4-0.3,0.5-0.8,0.8
		c-0.8,0.5-0.8,1.5-0.8,5.5c0.1,0.6,0.3,1.2,1.1,1.2c0.4,0,1.5-0.4,1.6-0.4c1.2-0.4,3.5-1.2,4.6-1.2c0.9,0,2.5,0.8,2.5,2.8
		c0,2.2-0.2,10-0.4,11.9c-0.5,3.8-2.4,4.4-5.9,4.4c-1.5,0-2.6,0.1-2.6-2.9c0-0.6,0.1-1.4,0.8-1.4c0.4,0,0.9,0.1,1.5,0.1
		c1.8,0,1.8-0.8,1.9-2.4c0.2-1.7,0.3-4.3,0.3-5.9c0-0.8-0.1-1.4-0.9-1.4c-0.6,0-2.1,0.5-2.7,0.6l-0.4,0.1c-1.1,0.4-1.5,0.9-1.5,2.1
		v4.8c0,2.3,0.2,4.6,0.2,6.9c0,1.8-0.5,1.9-2.3,1.9c-1.9,0-2.4-0.1-2.4-1.9c0-2.4,0.2-4.7,0.2-7v-3.6c0-0.7-0.3-1.3-1.1-1.3
		c-0.1,0-0.3,0.1-0.4,0.1l-2,0.6c-1,0.3-1.3,0.7-1.3,1.8v12.3c0,2.5,0.5,3.1,3.1,3.1h11.6c2.2,0,3.4-0.1,4.1-5.2
		c0.2-1.2,0.2-1.6,1.2-1.6c0.9,0,3.4,0.3,3.4,1.6c0,1.8-1.5,6.1-2.5,7.5c-1.3,1.8-3.3,2.1-5.4,2.1h-12.4c-4.6,0-7.4-0.5-7.4-5.8
		c0-0.9,0.1-1.8,0.1-2.8V33.3z"/>
	<path class="st0" d="M440,42.9c0,1.2,0.5,1.7,1.7,1.7h13.2c2.4,0,4.7-0.1,7.1-0.1c1.4,0,1.4,0.6,1.4,2.5c0,1.8,0,2.4-1.4,2.4
		c-2.4,0-4.8-0.1-7.1-0.1h-34.7c-2.4,0-4.7,0.1-7.1,0.1c-1.3,0-1.4-0.5-1.4-2.4c0-1.9,0.1-2.5,1.4-2.5c2.4,0,4.8,0.1,7.1,0.1h13.2
		c1.2,0,1.7-0.5,1.7-1.7v-32c0-1.2-0.5-1.7-1.7-1.7h-10.4c-2.3,0-4.6,0.1-6.9,0.1c-1.4,0-1.4-0.7-1.4-2.5s0-2.5,1.4-2.5
		c2.3,0,4.6,0.1,6.9,0.1h29.4c2.2,0,4.5-0.1,6.8-0.1c1.4,0,1.4,0.6,1.4,2.5s-0.1,2.5-1.4,2.5c-2.3,0-4.6-0.1-6.9-0.1h-10.7
		c-1.1,0-1.7,0.5-1.7,1.7V42.9z"/>
	<path class="st0" d="M482.2,26.4c0,3.4-2.3,6.3-6.3,6.3c-3.2,0-5.7-2.2-5.7-5.4c0-3.4,2.2-6.4,6.4-6.4
		C479.8,20.8,482.2,23,482.2,26.4z"/>
	<path class="st0" d="M499.5,8.3c-1.4,0-1.7,0.2-2.5,1.2c-0.6,0.9-3.2,4.8-4.3,4.8c-0.6,0-3.2-0.9-3.2-2c0-0.4,0.4-0.7,0.6-1
		c2.7-3,5.3-6.9,6.8-10.6c0.1-0.4,0.2-0.6,0.6-0.6c0.4,0,3.1,0.6,3.7,0.8c0.4,0.1,1.3,0.2,1.3,0.8c0,0.5-0.6,0.6-1,0.6
		c-0.5,0.1-0.8,0.8-1,1.2c-0.1,0.1-0.1,0.2-0.1,0.4c0,0.5,0.4,0.6,0.8,0.6h5.7c1.9,0,3.8-0.1,5.4-0.1c1.1,0,1.2,0.5,1.2,2
		c0,1.4-0.1,1.9-1.2,1.9c-1.3,0-3.3-0.1-5.2-0.1c-0.6,0.1-1.2,0.2-1.2,0.9c0,0.2,0.1,0.3,0.1,0.5c0.2,0.5,1,2.7,1,3.2
		c0,1.1-2.4,1.5-3.2,1.5c-0.6,0-0.8-0.4-1.3-2c-0.2-0.7-0.4-1.6-0.9-2.8C501.2,8.5,500.8,8.3,499.5,8.3z M530.2,16.7
		c1.9,0,3.6-0.1,5-0.1c2.9,0,4.4,0.4,4.4,2.5c0,0.6-0.1,1.6-0.1,2.7v2.1c0,0.5,0.1,1.5,0.1,1.9c0,1.2-0.7,1.2-2.4,1.2
		c-1.4,0-2.4,0-2.4-1.1c0-0.6,0.1-1.4,0.1-2.1v-1.6c0-1.2-0.5-1.7-1.7-1.7h-35.7c-1.2,0-1.7,0.5-1.7,1.7v1.5c0,0.6,0.1,1.5,0.1,2.1
		c0,1.1-0.9,1.1-2.4,1.1c-1.8,0-2.4-0.1-2.4-1.2c0-0.6,0.1-1.3,0.1-1.9v-2.1c0-1-0.1-2.1-0.1-2.7c0-2.1,1.4-2.5,4.1-2.5
		c1.4,0,3.1,0.1,5.1,0.1h11.1c0.9,0,1.4-0.4,1.4-1.3l-0.2-1.4c0-0.1-0.1-0.4-0.1-0.5c0-0.6,0.5-0.8,1-0.8c0.7,0,1.4,0.1,2.1,0.1
		c2.7,0.2,3.4,0.3,3.4,0.9c0,0.4-0.4,0.5-0.8,0.8c-0.4,0.2-0.5,0.4-0.6,0.8v0.2c0,0.9,0.6,1.1,1.4,1.1H530.2z M506.2,35.3
		c-0.8,0-1.2,0.4-1.2,1.2v0.8c0,0.9,0.4,1.2,1.2,1.2h18.5c1.4,0,2.8-0.1,4.1-0.1c1.8,0,2.8,0.6,2.8,2.5c0,1.2-0.1,2.3-0.1,3.4v2.7
		c0,1.5,0.1,3.1,0.1,4.6c0,1.1-0.5,1.2-2.5,1.2c-2.1,0-2.5-0.1-2.5-1.2c-0.1-0.8-0.4-1.1-1.2-1.1H506c-0.5,0-0.9,0.1-0.9,0.8
		c-0.1,1.4-0.4,1.5-2.5,1.5c-2,0-2.5-0.1-2.5-1.4c0-1.5,0.1-3,0.1-4.5V29.4c0-1.4-0.1-2.5-0.1-3.6c0-2.1,1.1-2.4,3-2.4
		c1.5,0,3.1,0.1,4.6,0.1h13.7c1.6,0,3.1-0.1,4.7-0.1c1.8,0,3,0.3,3,2.4c0,1.1-0.1,2.1-0.1,3.1v1.2c0,0.9,0.1,1.9,0.1,2.8
		c0,2.1-1.2,2.4-3,2.4c-1.5,0-3.1-0.1-4.7-0.1H506.2z M505,30.1c0,0.8,0.6,1.4,1.4,1.4H523c0.8,0,1.4-0.6,1.4-1.4v-1.5
		c0-0.8-0.6-1.4-1.4-1.4h-16.6c-0.8,0-1.4,0.6-1.4,1.4V30.1z M525.3,46.7c0.8,0,1.4-0.5,1.4-1.4v-1.5c0-0.8-0.6-1.4-1.4-1.4h-18.9
		c-0.8,0-1.4,0.6-1.4,1.4v1.5c0,0.9,0.6,1.4,1.4,1.4H525.3z M531.4,12.9c0,0.8-2.6,1.5-3.3,1.5c-0.7,0-0.8-0.4-1.2-1.8
		c-0.2-0.7-0.5-1.7-1.1-2.9c-0.5-1.1-1-1.4-2.2-1.4h-2.5c-1.2,0-1.7,0.2-2.5,1.2c-0.6,0.7-2,2.9-2.9,2.9c-0.9,0-3.4-1-3.4-1.8
		c0-0.4,0.4-0.7,0.6-1c2.4-2.6,4.3-5.5,5.8-8.7c0.2-0.4,0.4-0.8,0.8-0.8c0.3,0,3,0.6,3.5,0.8c0.5,0.1,1.5,0.2,1.5,0.9
		c0,0.4-0.6,0.5-0.9,0.5c-0.5,0.1-0.7,0.5-1.2,1.4c-0.1,0.1-0.1,0.2-0.1,0.4c0,0.5,0.4,0.6,0.8,0.6h10.8c2,0,4-0.1,6-0.1
		c1.2,0,1.2,0.5,1.2,1.9s0,1.9-1.2,1.9c-2,0-4-0.1-6-0.1h-2.5c-0.6,0.1-1.1,0.2-1.1,0.9c0,0.4,0.3,1.1,0.4,1.4
		C530.9,11.4,531.4,12.6,531.4,12.9z"/>
	<path class="st0" d="M565.7,19.4c1.1,0,1.1,0.7,1.1,2.3s0,2.3-1.1,2.3c-0.6,0-2.8-0.1-3.7-0.1c-1.1,0.1-1.6,0.5-1.6,1.7v8.4
		c0.1,0.6,0.3,1.2,1.1,1.2c0.2,0,0.3,0,0.5-0.1c0.7-0.2,4.4-1.5,4.7-1.5c1.1,0,1.2,1.7,1.2,2.5c0,1.3-0.2,1.6-1.2,1.9
		c-4.8,1.8-9.7,3.2-14.7,4.5c-1.6,0.4-1.5,0.5-1.8,1.2c-0.1,0.4-0.3,0.6-0.6,0.6c-0.5,0-0.6-0.4-1.1-1.6c-0.2-0.6-1.1-3.1-1.1-3.5
		c0-0.7,0.8-0.7,1.4-0.8c1.4-0.2,4.1-0.8,5.6-1.2c1.1-0.4,1.5-0.8,1.5-2v-9.7c0-1.2-0.5-1.7-1.7-1.7c-1.3-0.1-2.6,0.1-3.9,0.1
		c-1.2,0-1.2-0.8-1.2-2.3c0-1.5,0-2.3,1.2-2.3c1.1,0,2.7,0.2,3.9,0.1c1.2,0,1.7-0.5,1.7-1.7V9.6c0-1.1-0.5-1.7-1.7-1.7
		c-1.6-0.1-3.2,0.1-4.8,0.1c-1.2,0-1.2-0.6-1.2-2.2c0-1.7,0-2.4,1.2-2.4c1.6,0,3.4,0.1,5.1,0.1h7.1c1.7,0,3.5-0.1,5.1-0.1
		c1.2,0,1.2,0.6,1.2,2.4c0,1.6,0,2.2-1.2,2.2c-1.5,0-3-0.2-4.5-0.1c-1.2,0-1.7,0.5-1.7,1.7v8.3c0,1.2,0.5,1.6,1.6,1.7
		C562.4,19.5,565.6,19.4,565.7,19.4z M575.5,27.9c-0.5,0-0.9,0.5-1.2,1c-0.4,0.4-1,0.4-2.2,0.4c-1.7,0-2.4-0.1-2.4-1.4
		c0-1.5,0.1-2.9,0.1-4.4V8.2c0-1.2-0.1-2.4-0.1-3.7c0-2.1,1-2.5,2.9-2.5c1.2,0,2.5,0.1,3.8,0.1H591c1.2,0,2.5-0.1,3.7-0.1
		c1.9,0,2.9,0.4,2.9,2.5c0,1.2-0.1,2.4-0.1,3.7v15.3c0,1.5,0.1,3,0.1,4.5c0,1.3-0.8,1.3-2.4,1.3c-1.1,0-1.7,0-2.1-0.4
		c-0.4-0.4-0.7-1-1.3-1h-4.3c-1.1,0-1.6,0.5-1.6,1.7v3.7c0,1.1,0.5,1.6,1.6,1.6h2.3c2.2,0,4.4-0.1,6.6-0.1c1.3,0,1.3,0.7,1.3,2.2
		c0,1.6-0.1,2.2-1.3,2.2c-2.2,0-4.4-0.1-6.6-0.1h-2.3c-1.1,0-1.6,0.5-1.6,1.7v3.9c0,1.1,0.5,1.7,1.6,1.7h4.8c2.1,0,4.1-0.2,6.2-0.2
		c1.3,0,1.4,0.6,1.4,2.4c0,1.7-0.1,2.3-1.4,2.3c-2.1,0-4.1-0.1-6.2-0.1h-22c-2.1,0-4.2,0.1-6.3,0.1c-1.3,0-1.3-0.7-1.3-2.4
		c0-1.6,0-2.3,1.3-2.3c2.1,0,4.1,0.2,6.3,0.2h9.3c1.2,0,1.7-0.5,1.7-1.7v-3.9c0-1.2-0.5-1.7-1.7-1.7h-2.5c-2.2,0-4.4,0.1-6.6,0.1
		c-1.2,0-1.3-0.6-1.3-2.2c0-1.5,0.1-2.2,1.3-2.2c2.2,0,4.4,0.1,6.6,0.1h2.5c1.2,0,1.7-0.5,1.7-1.6v-3.7c0-1.2-0.5-1.7-1.7-1.7H575.5
		z M581.4,7.9c-0.1-1-0.6-1.5-1.6-1.7h-3.8c-1,0.1-1.5,0.6-1.7,1.7v3.3c0.1,1.1,0.6,1.5,1.7,1.7h3.8c1-0.1,1.5-0.6,1.6-1.7V7.9z
		 M575.9,16.9c-1,0.1-1.5,0.6-1.7,1.7v3.6c0.1,1,0.6,1.5,1.7,1.7h3.8c1.1-0.1,1.5-0.6,1.7-1.7v-3.6c-0.1-1.1-0.6-1.5-1.7-1.7H575.9z
		 M591.4,12.9c1.1-0.1,1.5-0.6,1.7-1.7V7.9c-0.1-1-0.6-1.5-1.6-1.7h-3.9c-1,0.1-1.5,0.6-1.6,1.7v3.3c0.1,1.1,0.6,1.5,1.6,1.7H591.4z
		 M586,22.1c0,1,0.6,1.5,1.6,1.7h3.8c1-0.1,1.5-0.6,1.7-1.7v-3.6c-0.1-1.1-0.6-1.5-1.7-1.7h-3.8c-1,0.1-1.6,0.6-1.6,1.7V22.1z"/>
</g>
<g>
	<path class="st0" d="M100,132.2c0-5.1,1.6-9.5,4.7-13c3.1-3.5,7.8-5.3,14-5.3s10.8,1.8,14,5.3c3.2,3.5,4.8,7.9,4.8,13
		s-1.6,9.4-4.8,12.8c-3.2,3.4-7.9,5.1-14,5.1s-10.8-1.7-14-5.1C101.6,141.6,100,137.3,100,132.2z M134.2,366.6h-31.7V181.3h31.7
		V366.6z"/>
	<path class="st0" d="M292.8,317.4c0-8.6-3.2-15.2-9.7-19.9c-6.5-4.7-17.7-8.8-33.7-12.2c-16-3.4-28.8-7.5-38.2-12.3
		c-9.4-4.8-16.4-10.5-20.9-17.1c-4.5-6.6-6.8-14.5-6.8-23.6c0-15.2,6.4-28,19.3-38.5c12.8-10.5,29.3-15.8,49.2-15.8
		c21,0,38,5.4,51.1,16.3c13.1,10.8,19.6,24.7,19.6,41.6h-31.9c0-8.7-3.7-16.2-11-22.4c-7.4-6.3-16.6-9.4-27.8-9.4
		c-11.5,0-20.5,2.5-27.1,7.5c-6.5,5-9.8,11.6-9.8,19.7c0,7.6,3,13.4,9.1,17.3c6,3.9,17,7.6,32.8,11.1c15.8,3.5,28.6,7.8,38.4,12.7
		c9.8,4.9,17.1,10.8,21.8,17.7c4.7,6.9,7.1,15.3,7.1,25.3c0,16.6-6.6,29.8-19.9,39.8c-13.2,10-30.4,15-51.5,15
		c-14.8,0-28-2.6-39.4-7.9c-11.4-5.2-20.4-12.6-26.8-22c-6.5-9.4-9.7-19.6-9.7-30.6h31.7c0.6,10.6,4.8,19,12.8,25.3
		c7.9,6.2,18.4,9.3,31.4,9.3c12,0,21.6-2.4,28.9-7.3C289.2,332,292.8,325.5,292.8,317.4z"/>
	<path class="st0" d="M400.2,366.6h-31.7v-263h31.7V366.6z"/>
	<path class="st0" d="M527.7,370c-25.1,0-45.5-8.2-61.3-24.7c-15.8-16.5-23.6-38.6-23.6-66.2v-5.8c0-18.4,3.5-34.8,10.5-49.2
		c7-14.4,16.8-25.7,29.5-33.9c12.6-8.2,26.3-12.2,41-12.2c24.1,0,42.8,7.9,56.2,23.8c13.4,15.9,20,38.6,20,68.2V283H474.5
		c0.5,18.3,5.8,33,16,44.3c10.2,11.2,23.2,16.9,39,16.9c11.2,0,20.7-2.3,28.4-6.8c7.8-4.6,14.6-10.6,20.4-18.2l19.3,15.1
		C582.1,358.1,558.8,370,527.7,370z M523.8,203.9c-12.8,0-23.5,4.7-32.2,14c-8.7,9.3-14,22.3-16.1,39.1h92.8v-2.4
		c-0.9-16.1-5.3-28.6-13-37.4C547.5,208.3,537,203.9,523.8,203.9z"/>
</g>
<g>
	<path class="st0" d="M15.7,437.2c-5-1.4-8.6-3.2-10.9-5.3c-2.3-2.1-3.4-4.7-3.4-7.7c0-3.5,1.4-6.3,4.2-8.6
		c2.8-2.3,6.4-3.4,10.8-3.4c3,0,5.7,0.6,8.1,1.8c2.4,1.2,4.2,2.8,5.5,4.8c1.3,2.1,1.9,4.3,1.9,6.7h-5.8c0-2.7-0.8-4.8-2.5-6.3
		c-1.7-1.5-4.1-2.3-7.2-2.3c-2.9,0-5.1,0.6-6.7,1.9c-1.6,1.3-2.4,3-2.4,5.3c0,1.8,0.8,3.3,2.3,4.6c1.5,1.2,4.1,2.4,7.8,3.4
		c3.7,1,6.5,2.2,8.6,3.4c2.1,1.2,3.6,2.7,4.6,4.3s1.5,3.6,1.5,5.8c0,3.6-1.4,6.4-4.2,8.6c-2.8,2.1-6.5,3.2-11.2,3.2
		c-3,0-5.8-0.6-8.5-1.7c-2.6-1.2-4.6-2.7-6.1-4.8c-1.4-2-2.1-4.3-2.1-6.9h5.8c0,2.7,1,4.8,2.9,6.3c2,1.5,4.6,2.3,7.9,2.3
		c3.1,0,5.4-0.6,7-1.9c1.6-1.2,2.4-3,2.4-5.1c0-2.2-0.8-3.8-2.3-5C22.4,439.5,19.6,438.3,15.7,437.2z"/>
	<path class="st0" d="M52.1,457.4c-4.4,0-8-1.5-10.8-4.4c-2.8-2.9-4.2-6.8-4.2-11.7v-1c0-3.2,0.6-6.1,1.9-8.7c1.2-2.5,3-4.5,5.2-6
		c2.2-1.4,4.6-2.2,7.2-2.2c4.3,0,7.6,1.4,9.9,4.2c2.4,2.8,3.5,6.8,3.5,12v2.3H42.7c0.1,3.2,1,5.8,2.8,7.8c1.8,2,4.1,3,6.9,3
		c2,0,3.6-0.4,5-1.2c1.4-0.8,2.6-1.9,3.6-3.2l3.4,2.7C61.7,455.3,57.6,457.4,52.1,457.4z M51.4,428.1c-2.3,0-4.2,0.8-5.7,2.5
		c-1.5,1.6-2.5,3.9-2.8,6.9h16.4V437c-0.2-2.8-0.9-5-2.3-6.6C55.6,428.9,53.7,428.1,51.4,428.1z"/>
	<path class="st0" d="M76.6,424.1l0.2,4.1c2.5-3.1,5.8-4.7,9.8-4.7c6.9,0,10.4,3.9,10.5,11.7v21.6h-5.6v-21.6c0-2.4-0.6-4.1-1.6-5.2
		c-1.1-1.1-2.7-1.7-4.9-1.7c-1.8,0-3.4,0.5-4.8,1.5c-1.4,1-2.4,2.2-3.2,3.8v23.3h-5.6v-32.7H76.6z"/>
	<path class="st0" d="M118.6,452.8c2,0,3.7-0.6,5.2-1.8c1.5-1.2,2.3-2.7,2.5-4.5h5.3c-0.1,1.9-0.7,3.7-1.9,5.3
		c-1.2,1.7-2.8,3-4.8,4.1c-2,1-4.1,1.5-6.3,1.5c-4.5,0-8-1.5-10.6-4.5c-2.6-3-3.9-7-3.9-12.2v-0.9c0-3.2,0.6-6,1.8-8.5
		c1.2-2.5,2.8-4.4,5-5.8c2.2-1.4,4.8-2.1,7.8-2.1c3.7,0,6.7,1.1,9.1,3.3c2.4,2.2,3.7,5,3.9,8.6h-5.3c-0.2-2.1-1-3.9-2.4-5.2
		c-1.4-1.4-3.2-2-5.3-2c-2.8,0-5,1-6.6,3.1c-1.6,2-2.3,5-2.3,8.9v1.1c0,3.8,0.8,6.7,2.3,8.7C113.5,451.8,115.7,452.8,118.6,452.8z"
		/>
	<path class="st0" d="M151.4,457.4c-4.4,0-8-1.5-10.8-4.4c-2.8-2.9-4.2-6.8-4.2-11.7v-1c0-3.2,0.6-6.1,1.9-8.7c1.2-2.5,3-4.5,5.2-6
		c2.2-1.4,4.6-2.2,7.2-2.2c4.3,0,7.6,1.4,9.9,4.2c2.4,2.8,3.5,6.8,3.5,12v2.3H142c0.1,3.2,1,5.8,2.8,7.8c1.8,2,4.1,3,6.9,3
		c2,0,3.6-0.4,5-1.2c1.4-0.8,2.6-1.9,3.6-3.2l3.4,2.7C161,455.3,156.9,457.4,151.4,457.4z M150.7,428.1c-2.3,0-4.2,0.8-5.7,2.5
		c-1.5,1.6-2.5,3.9-2.8,6.9h16.4V437c-0.2-2.8-0.9-5-2.3-6.6C154.9,428.9,153.1,428.1,150.7,428.1z"/>
	<path class="st0" d="M184.5,440.1c0-3.2,0.6-6.1,1.9-8.6c1.3-2.6,3-4.5,5.3-5.9c2.2-1.4,4.8-2.1,7.7-2.1c4.5,0,8.1,1.5,10.8,4.6
		c2.8,3.1,4.1,7.2,4.1,12.3v0.4c0,3.2-0.6,6-1.8,8.6c-1.2,2.5-3,4.5-5.2,5.9c-2.3,1.4-4.9,2.1-7.8,2.1c-4.4,0-8-1.5-10.8-4.6
		c-2.8-3.1-4.1-7.2-4.1-12.2V440.1z M190.1,440.8c0,3.6,0.8,6.5,2.5,8.7c1.7,2.2,3.9,3.3,6.8,3.3c2.8,0,5.1-1.1,6.8-3.3
		c1.7-2.2,2.5-5.3,2.5-9.4c0-3.6-0.9-6.5-2.6-8.7c-1.7-2.2-4-3.3-6.8-3.3c-2.8,0-5,1.1-6.7,3.3C191,433.6,190.1,436.7,190.1,440.8z"
		/>
	<path class="st0" d="M224,456.8v-28.4h-5.2v-4.3h5.2v-3.4c0-3.5,0.9-6.2,2.8-8.1c1.9-1.9,4.5-2.9,7.9-2.9c1.3,0,2.6,0.2,3.8,0.5
		l-0.3,4.5c-0.9-0.2-2-0.3-3-0.3c-1.8,0-3.2,0.5-4.2,1.6c-1,1.1-1.5,2.6-1.5,4.6v3.5h7v4.3h-7v28.4H224z"/>
	<path class="st0" d="M268.8,448.6l7.6-24.5h6l-13.1,37.7c-2,5.4-5.3,8.2-9.7,8.2l-1.1-0.1l-2.1-0.4V465l1.5,0.1
		c1.9,0,3.4-0.4,4.4-1.1c1.1-0.8,1.9-2.2,2.6-4.2l1.2-3.3l-11.7-32.3h6.1L268.8,448.6z"/>
	<path class="st0" d="M285.4,440.1c0-3.2,0.6-6.1,1.9-8.6c1.3-2.6,3-4.5,5.3-5.9c2.2-1.4,4.8-2.1,7.7-2.1c4.5,0,8.1,1.5,10.8,4.6
		c2.7,3.1,4.1,7.2,4.1,12.3v0.4c0,3.2-0.6,6-1.8,8.6c-1.2,2.5-3,4.5-5.2,5.9c-2.3,1.4-4.9,2.1-7.8,2.1c-4.4,0-8-1.5-10.8-4.6
		c-2.8-3.1-4.1-7.2-4.1-12.2V440.1z M291.1,440.8c0,3.6,0.8,6.5,2.5,8.7c1.7,2.2,3.9,3.3,6.8,3.3c2.8,0,5.1-1.1,6.8-3.3
		c1.7-2.2,2.5-5.3,2.5-9.4c0-3.6-0.9-6.5-2.6-8.7c-1.7-2.2-4-3.3-6.8-3.3c-2.8,0-5,1.1-6.7,3.3C291.9,433.6,291.1,436.7,291.1,440.8
		z"/>
	<path class="st0" d="M342.4,453.6c-2.2,2.6-5.4,3.8-9.6,3.8c-3.5,0-6.1-1-8-3c-1.8-2-2.7-5-2.8-9v-21.3h5.6v21.1c0,5,2,7.4,6,7.4
		c4.3,0,7.1-1.6,8.5-4.8v-23.8h5.6v32.7h-5.3L342.4,453.6z"/>
	<path class="st0" d="M372.2,429.1c-0.8-0.1-1.8-0.2-2.7-0.2c-3.7,0-6.2,1.6-7.5,4.7v23.2h-5.6v-32.7h5.4l0.1,3.8
		c1.8-2.9,4.4-4.4,7.8-4.4c1.1,0,1.9,0.1,2.5,0.4V429.1z"/>
	<path class="st0" d="M395.4,456.8v-28.4h-5.2v-4.3h5.2v-3.4c0-3.5,0.9-6.2,2.8-8.1c1.9-1.9,4.5-2.9,7.9-2.9c1.3,0,2.6,0.2,3.8,0.5
		l-0.3,4.5c-0.9-0.2-2-0.3-3-0.3c-1.8,0-3.2,0.5-4.2,1.6c-1,1.1-1.5,2.6-1.5,4.6v3.5h7v4.3h-7v28.4H395.4z"/>
	<path class="st0" d="M426.9,457.4c-4.4,0-8-1.5-10.8-4.4c-2.8-2.9-4.2-6.8-4.2-11.7v-1c0-3.2,0.6-6.1,1.9-8.7c1.2-2.5,3-4.5,5.2-6
		c2.2-1.4,4.6-2.2,7.2-2.2c4.3,0,7.6,1.4,9.9,4.2c2.4,2.8,3.5,6.8,3.5,12v2.3h-22.2c0.1,3.2,1,5.8,2.8,7.8c1.8,2,4.1,3,6.9,3
		c2,0,3.6-0.4,5-1.2c1.4-0.8,2.6-1.9,3.6-3.2l3.4,2.7C436.5,455.3,432.4,457.4,426.9,457.4z M426.2,428.1c-2.3,0-4.2,0.8-5.7,2.5
		c-1.5,1.6-2.5,3.9-2.8,6.9h16.4V437c-0.2-2.8-0.9-5-2.3-6.6C430.4,428.9,428.6,428.1,426.2,428.1z"/>
	<path class="st0" d="M459.7,457.4c-4.4,0-8-1.5-10.8-4.4c-2.8-2.9-4.2-6.8-4.2-11.7v-1c0-3.2,0.6-6.1,1.9-8.7c1.2-2.5,3-4.5,5.2-6
		c2.2-1.4,4.6-2.2,7.2-2.2c4.3,0,7.6,1.4,9.9,4.2c2.4,2.8,3.5,6.8,3.5,12v2.3h-22.2c0.1,3.2,1,5.8,2.8,7.8c1.8,2,4.1,3,6.9,3
		c2,0,3.6-0.4,5-1.2c1.4-0.8,2.6-1.9,3.6-3.2l3.4,2.7C469.3,455.3,465.2,457.4,459.7,457.4z M459,428.1c-2.3,0-4.2,0.8-5.7,2.5
		c-1.5,1.6-2.5,3.9-2.8,6.9h16.4V437c-0.2-2.8-0.9-5-2.3-6.6C463.2,428.9,461.4,428.1,459,428.1z"/>
	<path class="st0" d="M485,456.8h-5.6v-46.4h5.6V456.8z"/>
	<path class="st0" d="M516.9,416.2v7.9h6.1v4.3h-6.1v20.3c0,1.3,0.3,2.3,0.8,3c0.5,0.7,1.5,1,2.8,1c0.6,0,1.5-0.1,2.7-0.4v4.5
		c-1.5,0.4-2.9,0.6-4.3,0.6c-2.5,0-4.4-0.8-5.7-2.3c-1.3-1.5-1.9-3.7-1.9-6.4v-20.3h-6v-4.3h6v-7.9H516.9z"/>
	<path class="st0" d="M535.1,428.1c2.5-3,5.7-4.6,9.7-4.6c6.9,0,10.4,3.9,10.5,11.7v21.6h-5.6v-21.6c0-2.4-0.6-4.1-1.6-5.2
		c-1.1-1.1-2.7-1.7-4.9-1.7c-1.8,0-3.4,0.5-4.8,1.5c-1.4,1-2.4,2.2-3.2,3.8v23.3h-5.6v-46.4h5.6V428.1z"/>
	<path class="st0" d="M577.2,457.4c-4.4,0-8-1.5-10.8-4.4c-2.8-2.9-4.2-6.8-4.2-11.7v-1c0-3.2,0.6-6.1,1.9-8.7c1.2-2.5,3-4.5,5.2-6
		c2.2-1.4,4.6-2.2,7.2-2.2c4.3,0,7.6,1.4,9.9,4.2c2.4,2.8,3.5,6.8,3.5,12v2.3h-22.2c0.1,3.2,1,5.8,2.8,7.8c1.8,2,4.1,3,6.9,3
		c2,0,3.6-0.4,5-1.2c1.4-0.8,2.6-1.9,3.6-3.2l3.4,2.7C586.8,455.3,582.7,457.4,577.2,457.4z M576.5,428.1c-2.3,0-4.2,0.8-5.7,2.5
		c-1.5,1.6-2.5,3.9-2.8,6.9h16.4V437c-0.2-2.8-0.9-5-2.3-6.6C580.7,428.9,578.8,428.1,576.5,428.1z"/>
	<path class="st0" d="M611.8,415.4c0-0.9,0.3-1.7,0.8-2.3s1.4-0.9,2.5-0.9c1.1,0,1.9,0.3,2.5,0.9c0.6,0.6,0.8,1.4,0.8,2.3
		s-0.3,1.7-0.8,2.3c-0.6,0.6-1.4,0.9-2.5,0.9c-1.1,0-1.9-0.3-2.5-0.9C612,417.1,611.8,416.3,611.8,415.4z M617.8,456.8h-5.6v-32.7
		h5.6V456.8z"/>
	<path class="st0" d="M645.8,448.1c0-1.5-0.6-2.7-1.7-3.5c-1.1-0.8-3.1-1.6-6-2.2c-2.8-0.6-5.1-1.3-6.7-2.2c-1.7-0.8-2.9-1.9-3.7-3
		c-0.8-1.2-1.2-2.6-1.2-4.2c0-2.7,1.1-4.9,3.4-6.8c2.3-1.9,5.2-2.8,8.7-2.8c3.7,0,6.7,1,9,2.9c2.3,1.9,3.5,4.4,3.5,7.3h-5.6
		c0-1.5-0.6-2.8-1.9-4c-1.3-1.1-2.9-1.7-4.9-1.7c-2,0-3.6,0.4-4.8,1.3c-1.1,0.9-1.7,2-1.7,3.5c0,1.4,0.5,2.4,1.6,3.1
		c1.1,0.7,3,1.3,5.8,2s5.1,1.4,6.8,2.2c1.7,0.9,3,1.9,3.9,3.1c0.8,1.2,1.3,2.7,1.3,4.5c0,2.9-1.2,5.3-3.5,7
		c-2.3,1.8-5.4,2.6-9.1,2.6c-2.6,0-4.9-0.5-7-1.4c-2-0.9-3.6-2.2-4.7-3.9c-1.1-1.7-1.7-3.5-1.7-5.4h5.6c0.1,1.9,0.9,3.4,2.3,4.5
		c1.4,1.1,3.2,1.6,5.5,1.6c2.1,0,3.8-0.4,5.1-1.3C645.1,450.7,645.8,449.5,645.8,448.1z"/>
	<path class="st0" d="M664.7,456.8h-5.6v-46.4h5.6V456.8z"/>
	<path class="st0" d="M687.2,457.4c-4.4,0-8-1.5-10.8-4.4c-2.8-2.9-4.2-6.8-4.2-11.7v-1c0-3.2,0.6-6.1,1.9-8.7c1.2-2.5,3-4.5,5.2-6
		c2.2-1.4,4.6-2.2,7.2-2.2c4.3,0,7.6,1.4,9.9,4.2c2.4,2.8,3.5,6.8,3.5,12v2.3h-22.2c0.1,3.2,1,5.8,2.8,7.8c1.8,2,4.1,3,6.9,3
		c2,0,3.6-0.4,5-1.2c1.4-0.8,2.6-1.9,3.6-3.2l3.4,2.7C696.8,455.3,692.7,457.4,687.2,457.4z M686.6,428.1c-2.3,0-4.2,0.8-5.7,2.5
		c-1.5,1.6-2.5,3.9-2.8,6.9h16.4V437c-0.2-2.8-0.9-5-2.3-6.6C690.7,428.9,688.9,428.1,686.6,428.1z"/>
</g>
<g>
	<path class="st0" d="M485.9,127c2.5,0.1,4.1,0.2,9.7,0.2c0.7,0,1.6,0,2.4,0l18.4-0.3l0.6-0.6l2.9,2.9c0.2,0.2,0.3,0.4,0.3,0.6
		c0,0.3-0.2,0.4-0.9,0.7c-0.5,0.8-0.5,0.8-1.5,2.7c-2,3.6-5.3,7.3-8.9,10.4c-1-1.6-1.5-2.2-3.2-3.5c2-1.5,3.5-3,4.5-4
		c1.3-1.4,2.1-2.4,2.9-3.7l0.9-1.3l-16.1,0.2c-5.6,0-5.6,0-8.8,0.2c-0.6,0-1.1,0.1-1.4,0.1c-1,0-1,0-1.5,0.1L485.9,127z
		 M504.3,134.5c0.3,0,0.6,0.2,0.6,0.5c0,0.3-0.2,0.5-0.6,0.9c-0.5,6.2-0.7,7.7-1.3,9.9c-1.3,4.8-3.9,8-9.1,11.2
		c-1.6,1-2.9,1.6-4.6,2.5c-1.1-2-1.3-2.3-2.7-3.7c6.2-2.6,9.4-5.1,11.2-8.8c1.1-2.5,2.1-7.5,2.1-11.5c0-0.2,0-0.6-0.1-1.1
		L504.3,134.5z"/>
	<path class="st0" d="M545,136.7c0.3,0,0.6,0.2,0.6,0.4c0,0.2-0.2,0.4-0.7,0.7c0,1.3,0,1.3,0,6v8.9c0.1,6.1,0.1,6.1,0.1,7.3h-4.8
		c0.2-1.6,0.2-3.3,0.2-7.3v-8.8c0-1.2,0-3.1,0-4.2c-3.4,3.3-8.6,7-13.6,10.1c-0.6-1-1-1.5-1.4-2.1c-1.1-1.2-1.1-1.2-1.4-1.6
		c7.4-4.2,13-8.6,17.8-13.7c3.3-3.6,5.9-7,6.6-8.9l4,1.9c0.3,0.1,0.5,0.3,0.5,0.5c0,0.3-0.2,0.5-0.8,0.7c-0.4,0.6-5.3,6.8-5.5,7
		c-0.2,0.2-2,2.1-2.9,3L545,136.7z"/>
	<path class="st0" d="M573,128c0.2,0,0.5,0.2,0.5,0.4c0,0.2-0.3,0.6-0.8,0.8c0,10.3-0.3,13.7-1.6,17.3c-1.3,3.8-3.5,6.5-7,9
		c-0.9,0.6-1.6,1.1-3.5,2.2c-0.9-1.5-2-2.7-2.9-3.6c3.5-2.1,4.9-3.1,6.4-4.5c2.6-2.8,3.7-6.2,4.1-11.4c0.1-1.5,0.2-4.2,0.2-7
		c0-1.4,0-2.1-0.1-3.4L573,128z M577.4,154.3c0.4-1.3,0.4-1.3,0.5-7.7v-12.8c0-3.3,0-5.2-0.1-6.3l4.6,0.3c0.4,0,0.7,0.2,0.7,0.4
		c0,0.2-0.2,0.4-0.8,0.8c0,0.9,0,1.5,0,4.7v16.3c4.9-2.6,9-5.8,13-10.5c0.3,1.1,0.8,2.8,1.5,4.8c-6.6,6.2-8.9,7.8-14.7,10.8
		c-0.2,0.6-0.4,0.8-0.6,0.8c-0.1,0-0.1,0-0.6-0.2L577.4,154.3z"/>
</g>
</svg>
