<?xml version="1.0" encoding="utf-8"?>
<!-- Generator: Adobe Illustrator 27.2.0, SVG Export Plug-In . SVG Version: 6.00 Build 0)  -->
<svg version="1.1" id="レイヤー_1" xmlns="http://www.w3.org/2000/svg" xmlns:xlink="http://www.w3.org/1999/xlink" x="0px"
	 y="0px" viewBox="0 0 300 138.6" style="enable-background:new 0 0 300 138.6;" xml:space="preserve">
<style type="text/css">
	.st0{fill:#FFFFFF;}
</style>
<g>
	<path class="st0" d="M192.4,3.4c2.4,0.1,4,0.2,9.4,0.2c0.7,0,1.6,0,2.3,0L222,3.3l0.6-0.6l2.8,2.8c0.2,0.2,0.3,0.4,0.3,0.6
		c0,0.3-0.2,0.4-0.9,0.7c-0.5,0.8-0.5,0.8-1.5,2.6c-1.9,3.5-5.1,7.1-8.6,10.1c-1-1.6-1.5-2.1-3.1-3.4c1.9-1.5,3.4-2.9,4.4-3.9
		c1.3-1.4,2-2.3,2.8-3.6l0.9-1.3l-15.6,0.2c-5.4,0-5.4,0-8.5,0.2c-0.6,0-1.1,0.1-1.4,0.1c-1,0-1,0-1.5,0.1L192.4,3.4z M210.3,10.7
		c0.3,0,0.6,0.2,0.6,0.5s-0.2,0.5-0.6,0.9c-0.5,6-0.7,7.5-1.3,9.6c-1.3,4.7-3.8,7.8-8.8,10.9c-1.6,1-2.8,1.6-4.5,2.4
		c-1.1-1.9-1.3-2.2-2.6-3.6c6-2.5,9.1-4.9,10.9-8.5c1.1-2.4,2-7.3,2-11.2c0-0.2,0-0.6-0.1-1.1L210.3,10.7z"/>
	<path class="st0" d="M249.7,12.8c0.3,0,0.6,0.2,0.6,0.4s-0.2,0.4-0.7,0.7c0,1.3,0,1.3,0,5.8v8.6c0.1,5.9,0.1,5.9,0.1,7.1H245
		c0.2-1.6,0.2-3.2,0.2-7.1v-8.5c0-1.2,0-3,0-4.1c-3.3,3.2-8.3,6.8-13.2,9.8c-0.6-1-1-1.5-1.4-2c-1.1-1.2-1.1-1.2-1.4-1.6
		c7.2-4.1,12.6-8.3,17.3-13.3c3.2-3.5,5.7-6.8,6.4-8.6l3.9,1.8c0.3,0.1,0.5,0.3,0.5,0.5c0,0.3-0.2,0.5-0.8,0.7
		c-0.4,0.6-5.1,6.6-5.3,6.8c-0.2,0.2-1.9,2-2.8,2.9L249.7,12.8z"/>
	<path class="st0" d="M276.9,4.4c0.2,0,0.5,0.2,0.5,0.4c0,0.2-0.3,0.6-0.8,0.8c0,10-0.3,13.3-1.6,16.8c-1.3,3.7-3.4,6.3-6.8,8.7
		c-0.9,0.6-1.6,1.1-3.4,2.1c-0.9-1.5-1.9-2.6-2.8-3.5c3.4-2,4.8-3,6.2-4.4c2.5-2.7,3.6-6,4-11.1c0.1-1.5,0.2-4.1,0.2-6.8
		c0-1.4,0-2-0.1-3.3L276.9,4.4z M281.2,29.9c0.4-1.3,0.4-1.3,0.5-7.5V10c0-3.2,0-5-0.1-6.1l4.5,0.3c0.4,0,0.7,0.2,0.7,0.4
		c0,0.2-0.2,0.4-0.8,0.8c0,0.9,0,1.5,0,4.6v15.8c4.8-2.5,8.7-5.6,12.6-10.2c0.3,1.1,0.8,2.7,1.5,4.7c-6.4,6-8.6,7.6-14.3,10.5
		c-0.2,0.6-0.4,0.8-0.6,0.8c-0.1,0-0.1,0-0.6-0.2L281.2,29.9z"/>
</g>
<g>
	<path class="st0" d="M0,17.8c0-2.6,0.8-4.8,2.4-6.6s4-2.7,7.1-2.7s5.5,0.9,7.1,2.7s2.4,4,2.4,6.6s-0.8,4.8-2.4,6.5s-4,2.6-7.1,2.6
		S4,26,2.4,24.3C0.8,22.6,0,20.4,0,17.8z M17.4,136.9H1.3V42.7h16.1V136.9z"/>
	<path class="st0" d="M97.9,111.9c0-4.3-1.6-7.7-4.9-10.1s-9-4.5-17.1-6.2s-14.6-3.8-19.4-6.3c-4.8-2.4-8.3-5.3-10.6-8.7
		c-2.3-3.4-3.4-7.4-3.4-12c0-7.7,3.3-14.2,9.8-19.6c6.5-5.3,14.9-8,25-8c10.7,0,19.3,2.8,26,8.3c6.6,5.5,10,12.6,10,21.1H97
		c0-4.4-1.9-8.2-5.6-11.4s-8.5-4.8-14.1-4.8c-5.9,0-10.4,1.3-13.7,3.8c-3.3,2.6-5,5.9-5,10c0,3.9,1.5,6.8,4.6,8.8
		c3.1,2,8.6,3.9,16.7,5.7c8,1.8,14.5,3.9,19.5,6.4s8.7,5.5,11.1,9s3.6,7.8,3.6,12.8c0,8.4-3.4,15.2-10.1,20.2
		c-6.7,5.1-15.5,7.6-26.2,7.6c-7.5,0-14.2-1.3-20-4s-10.3-6.4-13.6-11.2s-4.9-10-4.9-15.5h16.1c0.3,5.4,2.4,9.7,6.5,12.8
		c4,3.2,9.4,4.7,16,4.7c6.1,0,11-1.2,14.7-3.7C96.1,119.3,97.9,116,97.9,111.9z"/>
	<path class="st0" d="M152.5,136.9h-16.1V3.2h16.1V136.9z"/>
	<path class="st0" d="M217.3,138.6c-12.8,0-23.1-4.2-31.1-12.6s-12-19.6-12-33.6v-3c0-9.3,1.8-17.7,5.3-25c3.6-7.3,8.6-13.1,15-17.2
		s13.4-6.2,20.8-6.2c12.2,0,21.7,4,28.5,12.1S254,72.7,254,87.7v6.7h-63.8c0.2,9.3,2.9,16.8,8.1,22.5c5.2,5.7,11.8,8.6,19.8,8.6
		c5.7,0,10.5-1.2,14.4-3.5s7.4-5.4,10.4-9.2l9.8,7.7C244.9,132.5,233.1,138.6,217.3,138.6z M215.3,54.2c-6.5,0-11.9,2.4-16.4,7.1
		c-4.4,4.7-7.1,11.4-8.2,19.9h47.1V80c-0.5-8.2-2.7-14.5-6.6-19C227.4,56.5,222,54.2,215.3,54.2z"/>
</g>
</svg>
