<?xml version="1.0" encoding="utf-8"?>
<!-- Generator: Adobe Illustrator 27.3.1, SVG Export Plug-In . SVG Version: 6.00 Build 0)  -->
<svg version="1.1" id="レイヤー_1" xmlns="http://www.w3.org/2000/svg" xmlns:xlink="http://www.w3.org/1999/xlink" x="0px"
	 y="0px" viewBox="0 0 700 470" style="enable-background:new 0 0 700 470;" xml:space="preserve">
<style type="text/css">
	.st0{fill:#FFFFFF;}
</style>
<g>
	<path class="st0" d="M144.5,6.3c2.4,0,4.9-0.2,6.8-0.2c1.2,0,1.3,0.5,1.3,2.3s-0.1,2.2-1.3,2.2c-2,0-4.5-0.2-6.8-0.2h-33.3
		c-1.1,0-1.7,0.5-1.7,1.7v12c0,8.1-0.5,16.8-3.4,24.5c-0.6,1.8-1.5,3.8-2.5,3.8c-0.9,0-3.6-1.2-3.6-2.2c0-0.4,0.3-0.8,0.5-1.1
		c1.2-2,2.5-6.3,3-8.6c1.2-5.3,1.5-11.3,1.5-16.7V14c0-1.7-0.1-3.5-0.1-5.2c0-2.3,1.1-2.7,3.2-2.7c1.8,0,3.7,0.1,5.5,0.1h10
		c1.1,0,1.5-0.4,1.6-1.5c0-1-0.1-2-0.2-3V1.2c0-0.6,0.4-0.8,1-0.8s4,0.3,4.7,0.4c0.4,0.1,0.9,0.2,0.9,0.7c0,0.4-0.3,0.5-0.8,0.8
		c-0.6,0.5-0.6,1.1-0.7,2.4c0.1,1.1,0.6,1.5,1.7,1.5h12.7V6.3z M116.1,32c-0.4,0-2.8-0.4-2.8-1.6c0-0.4,2.7-5.7,3.1-6.5
		c0.4-0.8,2.3-4.6,2.3-5.2c0-0.7-0.6-0.6-1.2-0.6H116c-1.5,0-2.9,0.1-3.2,0.1c-1.1,0-1.1-0.7-1.1-2.1s0-2.1,1.1-2.1
		c0.3,0,1.7,0.1,3.2,0.1h1.5c1.2,0,2.4-0.1,3.5-0.1c2.3,0,3.3,1.6,3.3,2.4c0,0.9-3.4,7.8-4.1,9.1c-0.1,0.2-0.2,0.3-0.2,0.5
		c0,0.6,0.5,0.8,1.1,0.9c1.1,0,2.1-0.1,3.2-0.1c2.5,0,2.9,2.2,2.9,3c0,2.9-2.5,9-4,11.6c-0.2,0.4-0.3,0.6-0.3,1
		c0,0.6,0.3,0.9,0.7,1.2c5.1,3.6,10.4,3.9,16.1,3.9h3.8c2.9,0,5.8-0.3,8.8-0.3c0.9,0,1.1,0.7,1.1,1.5c0,3.4-1.8,3.2-4.4,3.2h-8.4
		c-7.6,0-13.2-0.2-19.6-4.8c-0.4-0.2-0.6-0.4-1.1-0.4s-0.8,0.2-1.2,0.6c-1.3,1.2-6.4,5.5-8.1,5.5c-1,0-2.6-1.8-2.6-2.7
		c0-0.6,0.6-0.9,1.7-1.5c2.1-1.2,4.1-2.7,5.8-4.4c0.4-0.3,0.6-0.7,0.6-1.2c0-0.4-0.2-0.8-0.4-1.1c-0.9-1.1-4-5.9-4-7.1
		c0-1.1,2.2-1.9,2.9-1.9s0.8,0.5,1.4,1.6c0.6,1.4,1.4,2.6,2.2,3.8c0.2,0.3,0.5,0.5,0.8,0.5c0.4,0,0.6-0.3,0.8-0.6
		c0.6-1.3,2.4-5.4,2.4-6.7c0-0.7-0.9-0.6-2.4-0.6h-1.7c-0.6,0-1.2,0.5-1.7,0.9C116.6,32,116.5,32,116.1,32z M142.9,36.1
		c0,1.1,0.5,1.6,1.7,1.6h0.3c1.8,0,3.7-0.1,5.5-0.1c1.4,0,1.3,0.8,1.3,2.2s0,2.2-1.3,2.2c-1.9,0-3.7-0.1-5.5-0.1h-8.5
		c-1.8,0-3.7,0.1-5.5,0.1c-1.3,0-1.3-0.7-1.3-2.2c0-1.8,0.1-2.2,1.7-2.2c1,0,2.6,0.1,5.1,0.1h0.4c1.1,0,1.7-0.5,1.7-1.6v-4.5
		c0-1.2-0.5-1.7-1.7-1.7h-0.9c-1.9,0-4,0.1-5.9,0.1c-1.2,0-1.3-0.7-1.3-2.2s0.1-2.1,1.3-2.1c1.9,0,4,0.1,5.9,0.1h0.9
		c1.2,0,1.7-0.5,1.7-1.7v-2.8c0-0.8-0.4-1.4-1.3-1.4H137c-1.5,0.2-5,0.6-6.4,0.6s-1.7-2.1-1.7-3.1c0-1.2,0.6-1.2,2.2-1.2
		c5-0.2,12.9-1.2,17.5-2.9c0.2-0.1,0.6-0.2,0.8-0.2c0.5,0,3.2,3.5,3.2,4.2c0,0.3-0.3,0.5-0.6,0.5c-0.2,0-0.5-0.1-0.7-0.1
		c-0.2-0.1-0.5-0.2-0.7-0.2s-5.1,1.2-6,1.4c-1.2,0.3-1.5,0.7-1.6,1.9v3.5c0,1.2,0.5,1.7,1.7,1.7h1.7c1.9,0,3.9-0.1,5.9-0.1
		c1.2,0,1.2,0.6,1.2,2.1s0,2.2-1.2,2.2c-2,0-4-0.1-5.9-0.1h-1.7c-1.1,0-1.7,0.5-1.7,1.7L142.9,36.1L142.9,36.1z"/>
	<path class="st0" d="M201.4,12.8c3.9,3.9,5.8,8.8,5.8,14.3c0,8.1-4.2,15-11.4,18.8c-1.2,0.6-4.8,2.2-6.1,2.2
		c-1.2,0-3.3-2.8-3.3-3.8c0-0.6,0.9-0.7,1.5-0.8c8-1.7,14-7.5,14-16c0-6.8-3.8-12.9-10.5-15c-0.5-0.2-1.9-0.5-2.5-0.5
		c-1.5,0-1.5,1.3-1.6,2.4c-0.5,8.7-2.7,19.6-8.4,26.5c-1.8,2.2-4.3,4.3-7.4,4.3c-3.4,0-6.1-2.5-7.5-5.3c-1.2-2.4-1.8-5.5-1.8-8.2
		c0-13.6,10.4-24.5,24.1-24.5C192.1,7.1,197.2,8.8,201.4,12.8z M179.3,13.2c-7.6,3.1-12.1,10-12.1,18.2c0,2.6,0.9,8.6,4.4,8.6
		c3.2,0,6.3-6.2,7.3-8.8c2.1-5.7,3.5-11.6,3.5-17.4c0-0.6-0.3-1.2-0.9-1.2C180.9,12.5,179.8,13,179.3,13.2z"/>
	<path class="st0" d="M222.7,14c-1.8,0-3.5,0.1-5.4,0.1c-1.2,0-1.2-0.8-1.2-2.1c0-1.4,0-2.1,1.2-2.1c1.8,0,3.6,0.1,5.4,0.1h8.8
		c1.8,0,3.5-0.1,5.3-0.1c1.3,0,1.2,0.8,1.2,2.1s0.1,2.1-1.2,2.1c-1.8,0-3.6-0.1-5.4-0.1H222.7z M225.1,49.2c-1.3,0-1.6,0.6-1.6,1.8
		c-0.1,1.2-0.4,1.3-2.5,1.3c-1.4,0-2.1,0-2.1-1.2V38.2c0-0.8-0.1-1.5-0.1-2.3c0-1.8,0.8-2.4,2.6-2.4c0.9,0,1.8,0.1,2.7,0.1h6.1
		c0.9,0,1.7-0.1,2.4-0.1c1.6,0,2.6,0.5,2.6,2.3c0,0.8-0.1,1.6-0.1,2.4v7.6c0,1.1,0.1,2.3,0.1,3.5c0,1.3-0.6,1.5-2.3,1.5
		c-1.3,0-1.9-0.1-2.1-0.7c-0.2-0.8-0.7-0.8-1.5-0.8L225.1,49.2L225.1,49.2z M224.4,29.8c-1.4,0-2.7,0.1-3.8,0.1
		c-1.2,0-1.2-0.9-1.2-2.1s-0.1-2.1,1.2-2.1c1,0,2.4,0.1,3.8,0.1h5.7c1.4,0,2.8-0.1,3.8-0.1c1.2,0,1.2,0.9,1.2,2.1
		c0,1.7-0.2,2.1-1.4,2.1c-0.8,0-1.9-0.1-3.6-0.1H224.4z M224.4,21.9c-1.4,0-2.8,0.1-3.8,0.1c-1.3,0-1.2-1-1.2-2.1
		c0-1.7,0.1-2.1,1.5-2.1c0.7,0,1.8,0.1,3.5,0.1h5.7c1.4,0,2.7-0.1,3.8-0.1c1.2,0,1.2,0.9,1.2,2.1s0.1,2.1-1.2,2.1
		c-1.2,0-2.4-0.1-3.8-0.1H224.4z M224.9,6.3c-1.4,0-3,0.1-4.2,0.1c-1.4,0-1.2-0.9-1.2-2.2c0-1.4-0.1-2.1,1.3-2.1
		c1.1,0,2.7,0.1,4.1,0.1h4.8c1.5,0,3-0.1,4.2-0.1c1.3,0,1.2,0.8,1.2,2.1c0,1.4,0.1,2.2-1.2,2.2c-1.2,0-2.8-0.1-4.2-0.1
		C229.7,6.3,224.9,6.3,224.9,6.3z M223.5,43.7c0,1,0.6,1.5,1.6,1.7h4.1c1-0.1,1.6-0.6,1.6-1.7V39c0-1-0.6-1.5-1.6-1.7h-4.1
		c-1,0.1-1.6,0.6-1.6,1.7V43.7z M251.6,45.6c-0.4,0-0.8,0.2-1.2,0.5c-3,2.2-7,4.5-10.4,5.8c-0.5,0.2-1.5,0.5-2,0.5
		c-1.1,0-2.4-2-2.4-3c0-0.9,0.9-1.1,1.7-1.4c3.4-1.4,6.9-3.1,10-5.2c0.4-0.3,0.6-0.6,0.6-1.1c0-0.4-0.2-0.7-0.4-1.1
		c-2.2-3.1-3.5-5.8-4.8-9.4c-0.4-0.9-0.8-1.2-1.7-1.2h-1.3c-1.2,0-1.3-0.5-1.3-2.3s0.1-2.3,1.3-2.3c2.1,0,4.2,0.1,6.3,0.1h10
		c1.5,0,2.9-0.1,4.5-0.1c2.2,0,3.4,2.1,3.4,3c0,0.8-0.9,2.5-1.3,3.3c-1.8,3.3-4,6.5-6.5,9.3c-0.2,0.3-0.5,0.6-0.5,1
		c0,0.5,0.3,0.8,0.6,1.1c3.2,2.2,6.7,3.7,10.5,4.7c0.7,0.2,1.5,0.4,1.5,1.2c0,0.7-0.9,3.2-2.2,3.2c-0.4,0-1.3-0.3-1.8-0.5
		c-4.4-1.4-7.6-2.9-11.3-5.7C252.5,45.8,252.1,45.6,251.6,45.6z M244.8,18c-0.8,1.2-3.8,5-5.2,5c-0.8,0-2.7-1.8-2.7-2.7
		c0-0.4,0.4-0.8,0.6-1c4.7-3.8,5.4-6.5,5.4-12.4c0-0.7-0.1-1.4-0.1-2.1c0-2.2,0.4-2.9,2.7-2.9c0.8,0,1.5,0.1,2.2,0.1h5.4
		c0.8,0,1.5-0.1,2.3-0.1c2.1,0,2.5,0.7,2.5,2.7v9.7c0,1.7-0.1,2.8,1.5,2.8h2.4c1.2,0,2-0.4,2.4-5.2c0.1-0.7,0.2-1.3,1.5-1.3
		c1.1,0,2.7,0.4,2.7,1.7c0,1.7-0.5,4.1-1.1,5.7c-1.1,2.9-2.2,3.5-5.2,3.5h-4.6c-3.8,0-4.2-2.1-4.2-5c0-0.9,0.1-1.9,0.1-2.9V8
		c0-1.2-0.5-1.7-1.7-1.7H249c-1.1,0-1.7,0.4-1.7,1.5C247.2,11.9,247,14.5,244.8,18z M251.8,38.4c0.5,0,0.7-0.2,1-0.5
		c1-1.1,4.9-6.1,4.9-7.4c0-0.6-0.5-0.7-1.7-0.7h-7.7c-0.6,0.1-1.2,0.2-1.2,1c0,0.2,0.1,0.3,0.1,0.5c0.9,2.5,1.9,4.4,3.5,6.5
		C251,38.2,251.3,38.4,251.8,38.4z"/>
	<path class="st0" d="M282.4,14.2c-1.9,0-3.9,0.1-5.9,0.1c-1.4,0-1.4-0.6-1.4-2.1s0.1-2.1,1.4-2.1c2,0,4,0.1,5.9,0.1h10.3
		c1.9,0,3.9-0.1,5.9-0.1c1.4,0,1.4,0.5,1.4,2.1c0,1.5,0.1,2.1-1.4,2.1c-2,0-4-0.1-5.9-0.1C292.7,14.2,282.4,14.2,282.4,14.2z
		 M292.2,50.8c0-0.8-0.4-1.1-1.2-1.1h-7.6c-0.8,0-1.1,0.3-1.2,1.1c0,0.2,0.1,0.3,0.1,0.5c0,1.3-0.5,1.4-2.4,1.4
		c-1.8,0-2.3-0.1-2.3-1.4c0-1.3,0.1-2.5,0.1-3.8v-7.7c0-1.1-0.1-2.2-0.1-3.2c0-2.3,1.2-2.7,3.2-2.7c0.8,0,1.6,0.1,2.5,0.1h7.9
		c0.9,0,1.9-0.1,2.9-0.1c1.9,0,2.7,0.7,2.7,2.7c0,1.1-0.1,2.1-0.1,3.2v7.7c0,1.3,0.1,2.5,0.1,3.8c0,1.2-0.5,1.4-2.3,1.4
		s-2.4-0.1-2.4-1.3L292.2,50.8L292.2,50.8z M284.2,6.3c-1.6,0-3.2,0.1-4.9,0.1c-1.4,0-1.4-0.6-1.4-2.1c0-1.4,0-2.1,1.4-2.1
		c1.7,0,3.3,0.1,4.9,0.1h6.7c1.6,0,3.2-0.1,4.9-0.1c1.4,0,1.4,0.7,1.4,2.1s0.1,2.1-1.4,2.1c-1.7,0-3.3-0.1-4.9-0.1H284.2z M284,22.1
		c-1.5,0-3.1,0.1-4.5,0.1s-1.4-0.7-1.4-2.1s0-2.1,1.4-2.1s3,0.1,4.5,0.1h7c1.5,0,3.1-0.1,4.5-0.1s1.4,0.8,1.4,2.1
		c0,1.3,0.1,2.1-1.4,2.1s-3-0.1-4.5-0.1H284z M284.5,30c-1.7,0-3.3,0.1-5,0.1c-1.4,0-1.4-0.6-1.4-2.1s0-2.1,1.4-2.1
		c1.7,0,3.3,0.1,5,0.1h6c1.7,0,3.3-0.1,4.9-0.1c1.5,0,1.4,0.7,1.4,2.1s0.1,2.1-1.4,2.1c-1.7,0-3.3-0.1-4.9-0.1H284.5z M290.7,45.6
		c0.9,0,1.6-0.6,1.6-1.7v-4.4c0-1-0.6-1.5-1.6-1.7h-6.8c-1,0-1.5,0.6-1.7,1.7V44c0.1,1,0.6,1.7,1.7,1.7h6.8V45.6z M315.4,17.3
		c0,1.1,0.5,1.6,1.7,1.6h2.9c2.1,0,4.1-0.1,6.2-0.1c1.3,0,1.4,0.7,1.4,2.4s-0.1,2.4-1.4,2.4c-2.1,0-4.1-0.1-6.2-0.1h-3
		c-1.1,0-1.7,0.5-1.7,1.7v16.7c0,2.8,0.2,5.7,0.2,8.6c0,2.1-0.5,2.2-2.6,2.2c-2,0-2.6-0.2-2.6-2.2c0-2.9,0.2-5.8,0.2-8.6V25.2
		c0-1.2-0.5-1.7-1.7-1.7h-2.2c-2.1,0-4.1,0.1-6.2,0.1c-1.3,0-1.3-0.7-1.3-2.4s0-2.4,1.3-2.4c2.1,0,4.1,0.1,6.2,0.1h2.2
		c1.2,0,1.7-0.5,1.7-1.6V7c0-1.8,0-3.8-0.2-5.4c-0.1-0.2-0.1-0.4-0.1-0.6c0-0.6,0.4-0.8,1-0.8c0.5,0,1.7,0.1,2.3,0.2
		c0.4,0.1,0.7,0.1,1.1,0.1c1.4,0.1,2.3,0.2,2.3,0.9c0,0.4-0.3,0.5-0.8,0.9c-0.7,0.4-0.8,1.5-0.8,3.8v11.2H315.4z"/>
	<path class="st0" d="M345.5,26.4c0,3.4-2.3,6.3-6.3,6.3c-3.2,0-5.7-2.2-5.7-5.4c0-3.4,2.2-6.4,6.4-6.4
		C343.1,20.8,345.5,23,345.5,26.4z"/>
	<path class="st0" d="M360.6,5.4c0-1.4,0-2.7-0.2-4V0.8c0-0.6,0.5-0.8,1.1-0.8c0.8,0,2.5,0.2,3.4,0.2c0.9,0.1,2.1,0.1,2.1,0.8
		c0,0.4-0.4,0.6-0.8,0.9c-0.8,0.5-0.8,1-0.8,5v0.8c0,1.2,0.5,1.7,1.7,1.7h0.6c1.8,0,3.7-0.1,5.2-0.1c1.3,0,1.2,0.7,1.2,2.3
		c0,1.7,0.1,2.3-1.2,2.3c-1.5,0-3.4-0.1-5.2-0.1H363c-0.1,0-0.2,0.1-0.2,0.1l0.4,0.1c0.5,0.1,0.9,0.2,0.9,0.7s-0.3,0.6-0.8,0.9
		c-0.8,0.5-0.8,1.2-0.8,4.2c0,1.2,0.5,1.7,1.7,1.7h3.1c0.8,0,1.7-0.1,2.5-0.1c2.2,0,2.8,1,2.8,3.1c0,4.8-0.6,17-1.5,21.5
		c-0.9,4.9-2.2,6.5-7.3,6.5c-2.1,0-3.3,0.1-3.3-3.8c0-0.6,0-1.2,0.6-1.2s1.9,0.2,2.7,0.2c1.8,0,2.4-1.1,2.7-2.7
		c0.9-4.2,1.4-12.2,1.4-16.6c0-2.4,0-2.5-2.2-2.5h-1.9c-1.1,0-1.6,0.4-1.7,1.5c-0.6,7.6-2.3,16.5-5.8,23.3c-0.3,0.6-0.7,1.4-1.5,1.4
		c-1.1,0-3.3-1.8-3.3-2.7c0-0.3,0.2-0.6,0.4-0.9c1.7-2.6,2.9-6.5,3.8-9.6c1.5-5.7,2.2-11.6,2.2-17.5v-1.1c0-1.7,0.1-3.2-0.2-4.8
		c-0.1-1-0.4-1.6-1.5-1.7c-0.8,0-1.7,0.1-2.5,0.1c-1.2,0-1.2-0.7-1.2-2.3s0-2.3,1.2-2.3c1.6,0,3.5,0.2,5.3,0.1
		c1.1,0,1.6-0.5,1.6-1.7L360.6,5.4L360.6,5.4z M375.7,19.1c-0.3,0.4-0.6,0.8-1.2,0.8c-0.9,0-3.1-1.1-3.1-2.1c0-0.4,0.5-1,0.8-1.3
		c3.2-4.5,5.7-9.6,7.3-15c0.2-0.5,0.3-1.1,0.9-1.1c0.5,0,2.3,0.6,2.9,0.8c0.7,0.2,1.9,0.5,1.9,1.1c0,0.4-0.5,0.6-0.8,0.7
		c-0.8,0.2-0.9,0.6-1.2,1.7c-0.1,0.4-0.4,1-0.6,1.8c-0.1,0.2-0.1,0.4-0.1,0.5c0,0.9,0.9,0.9,1.1,0.9H397c2.1,0,4.2-0.1,6.2-0.1
		c1.2,0,1.3,0.5,1.3,2.2s-0.1,2.2-1.3,2.2c-1.9,0-4.1-0.1-6.2-0.1h-15.4c-1.2,0-1.7,0.2-2.3,1.3C378.3,15.3,377,17.4,375.7,19.1z
		 M377.5,33.3c0-0.6-0.2-1.1-0.9-1.1c-0.1,0-0.3,0.1-0.4,0.1c-0.4,0.1-1.1,0.4-1.5,0.4c-1,0-1.4-3.2-1.4-3.5c0-0.7,0.6-0.8,1.9-1.1
		c0.3-0.1,0.6-0.1,1.1-0.2c1-0.3,1.3-0.8,1.3-1.8v-4c0-1.1-0.1-2.2-0.2-3.4c0-0.2-0.1-0.4-0.1-0.6c0-0.6,0.4-0.7,0.9-0.7
		s3.7,0.3,4.2,0.4c0.4,0.1,0.8,0.1,0.8,0.6c0,0.4-0.3,0.5-0.7,0.8c-0.8,0.5-0.8,1.8-0.8,4.7v0.9c0.1,0.6,0.3,1.2,1.1,1.2
		c0.1,0,0.3,0,0.4-0.1l2-0.6c1-0.3,1.3-0.7,1.3-1.8v-3.2c0-1.4,0-2.9-0.2-4.2c-0.1-0.2-0.1-0.4-0.1-0.5c0-0.6,0.4-0.8,0.9-0.8
		c0.8,0,3.2,0.2,4,0.3c0.4,0.1,1.2,0.1,1.2,0.7c0,0.4-0.3,0.5-0.8,0.8c-0.8,0.5-0.8,1.5-0.8,5.5c0.1,0.6,0.3,1.2,1.1,1.2
		c0.4,0,1.5-0.4,1.6-0.4c1.2-0.4,3.5-1.2,4.6-1.2c0.9,0,2.5,0.8,2.5,2.8c0,2.2-0.2,10-0.4,11.9c-0.5,3.8-2.4,4.4-5.9,4.4
		c-1.5,0-2.6,0.1-2.6-2.9c0-0.6,0.1-1.4,0.8-1.4c0.4,0,0.9,0.1,1.5,0.1c1.8,0,1.8-0.8,1.9-2.4c0.2-1.7,0.3-4.3,0.3-5.9
		c0-0.8-0.1-1.4-0.9-1.4c-0.6,0-2.1,0.5-2.7,0.6l-0.4,0.1c-1.1,0.4-1.5,0.9-1.5,2.1v4.8c0,2.3,0.2,4.6,0.2,6.9
		c0,1.8-0.5,1.9-2.3,1.9c-1.9,0-2.4-0.1-2.4-1.9c0-2.4,0.2-4.7,0.2-7v-3.6c0-0.7-0.3-1.3-1.1-1.3c-0.1,0-0.3,0.1-0.4,0.1l-2,0.6
		c-1,0.3-1.3,0.7-1.3,1.8v12.3c0,2.5,0.5,3.1,3.1,3.1h11.6c2.2,0,3.4-0.1,4.1-5.2c0.2-1.2,0.2-1.6,1.2-1.6c0.9,0,3.4,0.3,3.4,1.6
		c0,1.8-1.5,6.1-2.5,7.5c-1.3,1.8-3.3,2.1-5.4,2.1h-12.4c-4.6,0-7.4-0.5-7.4-5.8c0-0.9,0.1-1.8,0.1-2.8v-9.9H377.5z"/>
	<path class="st0" d="M440,42.9c0,1.2,0.5,1.7,1.7,1.7h13.2c2.4,0,4.7-0.1,7.1-0.1c1.4,0,1.4,0.6,1.4,2.5c0,1.8,0,2.4-1.4,2.4
		c-2.4,0-4.8-0.1-7.1-0.1h-34.7c-2.4,0-4.7,0.1-7.1,0.1c-1.3,0-1.4-0.5-1.4-2.4s0.1-2.5,1.4-2.5c2.4,0,4.8,0.1,7.1,0.1h13.2
		c1.2,0,1.7-0.5,1.7-1.7v-32c0-1.2-0.5-1.7-1.7-1.7H423c-2.3,0-4.6,0.1-6.9,0.1c-1.4,0-1.4-0.7-1.4-2.5s0-2.5,1.4-2.5
		c2.3,0,4.6,0.1,6.9,0.1h29.4c2.2,0,4.5-0.1,6.8-0.1c1.4,0,1.4,0.6,1.4,2.5s-0.1,2.5-1.4,2.5c-2.3,0-4.6-0.1-6.9-0.1h-10.7
		c-1.1,0-1.7,0.5-1.7,1.7v32H440z"/>
	<path class="st0" d="M482.2,26.4c0,3.4-2.3,6.3-6.3,6.3c-3.2,0-5.7-2.2-5.7-5.4c0-3.4,2.2-6.4,6.4-6.4
		C479.8,20.8,482.2,23,482.2,26.4z"/>
	<path class="st0" d="M499.5,8.3c-1.4,0-1.7,0.2-2.5,1.2c-0.6,0.9-3.2,4.8-4.3,4.8c-0.6,0-3.2-0.9-3.2-2c0-0.4,0.4-0.7,0.6-1
		c2.7-3,5.3-6.9,6.8-10.6c0.1-0.4,0.2-0.6,0.6-0.6s3.1,0.6,3.7,0.8c0.4,0.1,1.3,0.2,1.3,0.8c0,0.5-0.6,0.6-1,0.6
		c-0.5,0.1-0.8,0.8-1,1.2c-0.1,0.1-0.1,0.2-0.1,0.4c0,0.5,0.4,0.6,0.8,0.6h5.7c1.9,0,3.8-0.1,5.4-0.1c1.1,0,1.2,0.5,1.2,2
		c0,1.4-0.1,1.9-1.2,1.9c-1.3,0-3.3-0.1-5.2-0.1c-0.6,0.1-1.2,0.2-1.2,0.9c0,0.2,0.1,0.3,0.1,0.5c0.2,0.5,1,2.7,1,3.2
		c0,1.1-2.4,1.5-3.2,1.5c-0.6,0-0.8-0.4-1.3-2c-0.2-0.7-0.4-1.6-0.9-2.8C501.2,8.5,500.8,8.3,499.5,8.3z M530.2,16.7
		c1.9,0,3.6-0.1,5-0.1c2.9,0,4.4,0.4,4.4,2.5c0,0.6-0.1,1.6-0.1,2.7v2.1c0,0.5,0.1,1.5,0.1,1.9c0,1.2-0.7,1.2-2.4,1.2
		c-1.4,0-2.4,0-2.4-1.1c0-0.6,0.1-1.4,0.1-2.1v-1.6c0-1.2-0.5-1.7-1.7-1.7h-35.7c-1.2,0-1.7,0.5-1.7,1.7v1.5c0,0.6,0.1,1.5,0.1,2.1
		c0,1.1-0.9,1.1-2.4,1.1c-1.8,0-2.4-0.1-2.4-1.2c0-0.6,0.1-1.3,0.1-1.9v-2.1c0-1-0.1-2.1-0.1-2.7c0-2.1,1.4-2.5,4.1-2.5
		c1.4,0,3.1,0.1,5.1,0.1h11.1c0.9,0,1.4-0.4,1.4-1.3l-0.2-1.4c0-0.1-0.1-0.4-0.1-0.5c0-0.6,0.5-0.8,1-0.8c0.7,0,1.4,0.1,2.1,0.1
		c2.7,0.2,3.4,0.3,3.4,0.9c0,0.4-0.4,0.5-0.8,0.8c-0.4,0.2-0.5,0.4-0.6,0.8v0.2c0,0.9,0.6,1.1,1.4,1.1h11.2V16.7z M506.2,35.3
		c-0.8,0-1.2,0.4-1.2,1.2v0.8c0,0.9,0.4,1.2,1.2,1.2h18.5c1.4,0,2.8-0.1,4.1-0.1c1.8,0,2.8,0.6,2.8,2.5c0,1.2-0.1,2.3-0.1,3.4V47
		c0,1.5,0.1,3.1,0.1,4.6c0,1.1-0.5,1.2-2.5,1.2c-2.1,0-2.5-0.1-2.5-1.2c-0.1-0.8-0.4-1.1-1.2-1.1H506c-0.5,0-0.9,0.1-0.9,0.8
		c-0.1,1.4-0.4,1.5-2.5,1.5c-2,0-2.5-0.1-2.5-1.4c0-1.5,0.1-3,0.1-4.5V29.4c0-1.4-0.1-2.5-0.1-3.6c0-2.1,1.1-2.4,3-2.4
		c1.5,0,3.1,0.1,4.6,0.1h13.7c1.6,0,3.1-0.1,4.7-0.1c1.8,0,3,0.3,3,2.4c0,1.1-0.1,2.1-0.1,3.1v1.2c0,0.9,0.1,1.9,0.1,2.8
		c0,2.1-1.2,2.4-3,2.4c-1.5,0-3.1-0.1-4.7-0.1L506.2,35.3L506.2,35.3z M505,30.1c0,0.8,0.6,1.4,1.4,1.4H523c0.8,0,1.4-0.6,1.4-1.4
		v-1.5c0-0.8-0.6-1.4-1.4-1.4h-16.6c-0.8,0-1.4,0.6-1.4,1.4V30.1z M525.3,46.7c0.8,0,1.4-0.5,1.4-1.4v-1.5c0-0.8-0.6-1.4-1.4-1.4
		h-18.9c-0.8,0-1.4,0.6-1.4,1.4v1.5c0,0.9,0.6,1.4,1.4,1.4H525.3z M531.4,12.9c0,0.8-2.6,1.5-3.3,1.5s-0.8-0.4-1.2-1.8
		c-0.2-0.7-0.5-1.7-1.1-2.9c-0.5-1.1-1-1.4-2.2-1.4h-2.5c-1.2,0-1.7,0.2-2.5,1.2c-0.6,0.7-2,2.9-2.9,2.9s-3.4-1-3.4-1.8
		c0-0.4,0.4-0.7,0.6-1c2.4-2.6,4.3-5.5,5.8-8.7c0.2-0.4,0.4-0.8,0.8-0.8c0.3,0,3,0.6,3.5,0.8c0.5,0.1,1.5,0.2,1.5,0.9
		c0,0.4-0.6,0.5-0.9,0.5c-0.5,0.1-0.7,0.5-1.2,1.4c-0.1,0.1-0.1,0.2-0.1,0.4c0,0.5,0.4,0.6,0.8,0.6h10.8c2,0,4-0.1,6-0.1
		c1.2,0,1.2,0.5,1.2,1.9s0,1.9-1.2,1.9c-2,0-4-0.1-6-0.1h-2.5c-0.6,0.1-1.1,0.2-1.1,0.9c0,0.4,0.3,1.1,0.4,1.4
		C530.9,11.4,531.4,12.6,531.4,12.9z"/>
	<path class="st0" d="M565.7,19.4c1.1,0,1.1,0.7,1.1,2.3s0,2.3-1.1,2.3c-0.6,0-2.8-0.1-3.7-0.1c-1.1,0.1-1.6,0.5-1.6,1.7V34
		c0.1,0.6,0.3,1.2,1.1,1.2c0.2,0,0.3,0,0.5-0.1c0.7-0.2,4.4-1.5,4.7-1.5c1.1,0,1.2,1.7,1.2,2.5c0,1.3-0.2,1.6-1.2,1.9
		c-4.8,1.8-9.7,3.2-14.7,4.5c-1.6,0.4-1.5,0.5-1.8,1.2c-0.1,0.4-0.3,0.6-0.6,0.6c-0.5,0-0.6-0.4-1.1-1.6c-0.2-0.6-1.1-3.1-1.1-3.5
		c0-0.7,0.8-0.7,1.4-0.8c1.4-0.2,4.1-0.8,5.6-1.2c1.1-0.4,1.5-0.8,1.5-2v-9.7c0-1.2-0.5-1.7-1.7-1.7c-1.3-0.1-2.6,0.1-3.9,0.1
		c-1.2,0-1.2-0.8-1.2-2.3s0-2.3,1.2-2.3c1.1,0,2.7,0.2,3.9,0.1c1.2,0,1.7-0.5,1.7-1.7V9.6c0-1.1-0.5-1.7-1.7-1.7
		C552.6,7.8,551,8,549.4,8c-1.2,0-1.2-0.6-1.2-2.2c0-1.7,0-2.4,1.2-2.4c1.6,0,3.4,0.1,5.1,0.1h7.1c1.7,0,3.5-0.1,5.1-0.1
		c1.2,0,1.2,0.6,1.2,2.4c0,1.6,0,2.2-1.2,2.2c-1.5,0-3-0.2-4.5-0.1c-1.2,0-1.7,0.5-1.7,1.7v8.3c0,1.2,0.5,1.6,1.6,1.7
		C562.4,19.5,565.6,19.4,565.7,19.4z M575.5,27.9c-0.5,0-0.9,0.5-1.2,1c-0.4,0.4-1,0.4-2.2,0.4c-1.7,0-2.4-0.1-2.4-1.4
		c0-1.5,0.1-2.9,0.1-4.4V8.2c0-1.2-0.1-2.4-0.1-3.7c0-2.1,1-2.5,2.9-2.5c1.2,0,2.5,0.1,3.8,0.1H591c1.2,0,2.5-0.1,3.7-0.1
		c1.9,0,2.9,0.4,2.9,2.5c0,1.2-0.1,2.4-0.1,3.7v15.3c0,1.5,0.1,3,0.1,4.5c0,1.3-0.8,1.3-2.4,1.3c-1.1,0-1.7,0-2.1-0.4
		c-0.4-0.4-0.7-1-1.3-1h-4.3c-1.1,0-1.6,0.5-1.6,1.7v3.7c0,1.1,0.5,1.6,1.6,1.6h2.3c2.2,0,4.4-0.1,6.6-0.1c1.3,0,1.3,0.7,1.3,2.2
		c0,1.6-0.1,2.2-1.3,2.2c-2.2,0-4.4-0.1-6.6-0.1h-2.3c-1.1,0-1.6,0.5-1.6,1.7v3.9c0,1.1,0.5,1.7,1.6,1.7h4.8c2.1,0,4.1-0.2,6.2-0.2
		c1.3,0,1.4,0.6,1.4,2.4c0,1.7-0.1,2.3-1.4,2.3c-2.1,0-4.1-0.1-6.2-0.1h-22c-2.1,0-4.2,0.1-6.3,0.1c-1.3,0-1.3-0.7-1.3-2.4
		c0-1.6,0-2.3,1.3-2.3c2.1,0,4.1,0.2,6.3,0.2h9.3c1.2,0,1.7-0.5,1.7-1.7v-3.9c0-1.2-0.5-1.7-1.7-1.7h-2.5c-2.2,0-4.4,0.1-6.6,0.1
		c-1.2,0-1.3-0.6-1.3-2.2c0-1.5,0.1-2.2,1.3-2.2c2.2,0,4.4,0.1,6.6,0.1h2.5c1.2,0,1.7-0.5,1.7-1.6v-3.7c0-1.2-0.5-1.7-1.7-1.7
		C579.6,27.9,575.5,27.9,575.5,27.9z M581.4,7.9c-0.1-1-0.6-1.5-1.6-1.7H576c-1,0.1-1.5,0.6-1.7,1.7v3.3c0.1,1.1,0.6,1.5,1.7,1.7
		h3.8c1-0.1,1.5-0.6,1.6-1.7V7.9z M575.9,16.9c-1,0.1-1.5,0.6-1.7,1.7v3.6c0.1,1,0.6,1.5,1.7,1.7h3.8c1.1-0.1,1.5-0.6,1.7-1.7v-3.6
		c-0.1-1.1-0.6-1.5-1.7-1.7H575.9z M591.4,12.9c1.1-0.1,1.5-0.6,1.7-1.7V7.9c-0.1-1-0.6-1.5-1.6-1.7h-3.9c-1,0.1-1.5,0.6-1.6,1.7
		v3.3c0.1,1.1,0.6,1.5,1.6,1.7H591.4z M586,22.1c0,1,0.6,1.5,1.6,1.7h3.8c1-0.1,1.5-0.6,1.7-1.7v-3.6c-0.1-1.1-0.6-1.5-1.7-1.7h-3.8
		c-1,0.1-1.6,0.6-1.6,1.7V22.1z"/>
</g>
<g>
	<path class="st0" d="M15.7,437.2c-5-1.4-8.6-3.2-10.9-5.3c-2.3-2.1-3.4-4.7-3.4-7.7c0-3.5,1.4-6.3,4.2-8.6
		c2.8-2.3,6.4-3.4,10.8-3.4c3,0,5.7,0.6,8.1,1.8c2.4,1.2,4.2,2.8,5.5,4.8c1.3,2.1,1.9,4.3,1.9,6.7h-5.8c0-2.7-0.8-4.8-2.5-6.3
		s-4.1-2.3-7.2-2.3c-2.9,0-5.1,0.6-6.7,1.9s-2.4,3-2.4,5.3c0,1.8,0.8,3.3,2.3,4.6c1.5,1.2,4.1,2.4,7.8,3.4s6.5,2.2,8.6,3.4
		c2.1,1.2,3.6,2.7,4.6,4.3s1.5,3.6,1.5,5.8c0,3.6-1.4,6.4-4.2,8.6c-2.8,2.1-6.5,3.2-11.2,3.2c-3,0-5.8-0.6-8.5-1.7
		c-2.6-1.2-4.6-2.7-6.1-4.8c-1.4-2-2.1-4.3-2.1-6.9h5.8c0,2.7,1,4.8,2.9,6.3c2,1.5,4.6,2.3,7.9,2.3c3.1,0,5.4-0.6,7-1.9
		c1.6-1.2,2.4-3,2.4-5.1c0-2.2-0.8-3.8-2.3-5C22.4,439.5,19.6,438.3,15.7,437.2z"/>
	<path class="st0" d="M52.1,457.4c-4.4,0-8-1.5-10.8-4.4s-4.2-6.8-4.2-11.7v-1c0-3.2,0.6-6.1,1.9-8.7c1.2-2.5,3-4.5,5.2-6
		c2.2-1.4,4.6-2.2,7.2-2.2c4.3,0,7.6,1.4,9.9,4.2c2.4,2.8,3.5,6.8,3.5,12v2.3H42.7c0.1,3.2,1,5.8,2.8,7.8s4.1,3,6.9,3
		c2,0,3.6-0.4,5-1.2c1.4-0.8,2.6-1.9,3.6-3.2l3.4,2.7C61.7,455.3,57.6,457.4,52.1,457.4z M51.4,428.1c-2.3,0-4.2,0.8-5.7,2.5
		c-1.5,1.6-2.5,3.9-2.8,6.9h16.4V437c-0.2-2.8-0.9-5-2.3-6.6C55.6,428.9,53.7,428.1,51.4,428.1z"/>
	<path class="st0" d="M76.6,424.1l0.2,4.1c2.5-3.1,5.8-4.7,9.8-4.7c6.9,0,10.4,3.9,10.5,11.7v21.6h-5.6v-21.6c0-2.4-0.6-4.1-1.6-5.2
		c-1.1-1.1-2.7-1.7-4.9-1.7c-1.8,0-3.4,0.5-4.8,1.5s-2.4,2.2-3.2,3.8v23.3h-5.6v-32.7L76.6,424.1L76.6,424.1z"/>
	<path class="st0" d="M118.6,452.8c2,0,3.7-0.6,5.2-1.8c1.5-1.2,2.3-2.7,2.5-4.5h5.3c-0.1,1.9-0.7,3.7-1.9,5.3
		c-1.2,1.7-2.8,3-4.8,4.1c-2,1-4.1,1.5-6.3,1.5c-4.5,0-8-1.5-10.6-4.5s-3.9-7-3.9-12.2v-0.9c0-3.2,0.6-6,1.8-8.5
		c1.2-2.5,2.8-4.4,5-5.8s4.8-2.1,7.8-2.1c3.7,0,6.7,1.1,9.1,3.3c2.4,2.2,3.7,5,3.9,8.6h-5.3c-0.2-2.1-1-3.9-2.4-5.2
		c-1.4-1.4-3.2-2-5.3-2c-2.8,0-5,1-6.6,3.1c-1.6,2-2.3,5-2.3,8.9v1.1c0,3.8,0.8,6.7,2.3,8.7C113.5,451.8,115.7,452.8,118.6,452.8z"
		/>
	<path class="st0" d="M151.4,457.4c-4.4,0-8-1.5-10.8-4.4s-4.2-6.8-4.2-11.7v-1c0-3.2,0.6-6.1,1.9-8.7c1.2-2.5,3-4.5,5.2-6
		c2.2-1.4,4.6-2.2,7.2-2.2c4.3,0,7.6,1.4,9.9,4.2c2.4,2.8,3.5,6.8,3.5,12v2.3H142c0.1,3.2,1,5.8,2.8,7.8s4.1,3,6.9,3
		c2,0,3.6-0.4,5-1.2c1.4-0.8,2.6-1.9,3.6-3.2l3.4,2.7C161,455.3,156.9,457.4,151.4,457.4z M150.7,428.1c-2.3,0-4.2,0.8-5.7,2.5
		c-1.5,1.6-2.5,3.9-2.8,6.9h16.4V437c-0.2-2.8-0.9-5-2.3-6.6C154.9,428.9,153.1,428.1,150.7,428.1z"/>
	<path class="st0" d="M184.5,440.1c0-3.2,0.6-6.1,1.9-8.6c1.3-2.6,3-4.5,5.3-5.9c2.2-1.4,4.8-2.1,7.7-2.1c4.5,0,8.1,1.5,10.8,4.6
		c2.8,3.1,4.1,7.2,4.1,12.3v0.4c0,3.2-0.6,6-1.8,8.6c-1.2,2.5-3,4.5-5.2,5.9c-2.3,1.4-4.9,2.1-7.8,2.1c-4.4,0-8-1.5-10.8-4.6
		s-4.1-7.2-4.1-12.2L184.5,440.1L184.5,440.1z M190.1,440.8c0,3.6,0.8,6.5,2.5,8.7s3.9,3.3,6.8,3.3c2.8,0,5.1-1.1,6.8-3.3
		c1.7-2.2,2.5-5.3,2.5-9.4c0-3.6-0.9-6.5-2.6-8.7c-1.7-2.2-4-3.3-6.8-3.3s-5,1.1-6.7,3.3C191,433.6,190.1,436.7,190.1,440.8z"/>
	<path class="st0" d="M224,456.8v-28.4h-5.2v-4.3h5.2v-3.4c0-3.5,0.9-6.2,2.8-8.1c1.9-1.9,4.5-2.9,7.9-2.9c1.3,0,2.6,0.2,3.8,0.5
		l-0.3,4.5c-0.9-0.2-2-0.3-3-0.3c-1.8,0-3.2,0.5-4.2,1.6s-1.5,2.6-1.5,4.6v3.5h7v4.3h-7v28.4L224,456.8L224,456.8z"/>
	<path class="st0" d="M268.8,448.6l7.6-24.5h6l-13.1,37.7c-2,5.4-5.3,8.2-9.7,8.2l-1.1-0.1l-2.1-0.4V465l1.5,0.1
		c1.9,0,3.4-0.4,4.4-1.1c1.1-0.8,1.9-2.2,2.6-4.2l1.2-3.3l-11.7-32.3h6.1L268.8,448.6z"/>
	<path class="st0" d="M285.4,440.1c0-3.2,0.6-6.1,1.9-8.6c1.3-2.6,3-4.5,5.3-5.9c2.2-1.4,4.8-2.1,7.7-2.1c4.5,0,8.1,1.5,10.8,4.6
		c2.7,3.1,4.1,7.2,4.1,12.3v0.4c0,3.2-0.6,6-1.8,8.6c-1.2,2.5-3,4.5-5.2,5.9c-2.3,1.4-4.9,2.1-7.8,2.1c-4.4,0-8-1.5-10.8-4.6
		s-4.1-7.2-4.1-12.2v-0.5H285.4z M291.1,440.8c0,3.6,0.8,6.5,2.5,8.7s3.9,3.3,6.8,3.3c2.8,0,5.1-1.1,6.8-3.3
		c1.7-2.2,2.5-5.3,2.5-9.4c0-3.6-0.9-6.5-2.6-8.7s-4-3.3-6.8-3.3s-5,1.1-6.7,3.3C291.9,433.6,291.1,436.7,291.1,440.8z"/>
	<path class="st0" d="M342.4,453.6c-2.2,2.6-5.4,3.8-9.6,3.8c-3.5,0-6.1-1-8-3c-1.8-2-2.7-5-2.8-9v-21.3h5.6v21.1c0,5,2,7.4,6,7.4
		c4.3,0,7.1-1.6,8.5-4.8V424h5.6v32.7h-5.3L342.4,453.6z"/>
	<path class="st0" d="M372.2,429.1c-0.8-0.1-1.8-0.2-2.7-0.2c-3.7,0-6.2,1.6-7.5,4.7v23.2h-5.6v-32.7h5.4l0.1,3.8
		c1.8-2.9,4.4-4.4,7.8-4.4c1.1,0,1.9,0.1,2.5,0.4L372.2,429.1L372.2,429.1z"/>
	<path class="st0" d="M395.4,456.8v-28.4h-5.2v-4.3h5.2v-3.4c0-3.5,0.9-6.2,2.8-8.1s4.5-2.9,7.9-2.9c1.3,0,2.6,0.2,3.8,0.5l-0.3,4.5
		c-0.9-0.2-2-0.3-3-0.3c-1.8,0-3.2,0.5-4.2,1.6s-1.5,2.6-1.5,4.6v3.5h7v4.3h-7v28.4L395.4,456.8L395.4,456.8z"/>
	<path class="st0" d="M426.9,457.4c-4.4,0-8-1.5-10.8-4.4s-4.2-6.8-4.2-11.7v-1c0-3.2,0.6-6.1,1.9-8.7c1.2-2.5,3-4.5,5.2-6
		c2.2-1.4,4.6-2.2,7.2-2.2c4.3,0,7.6,1.4,9.9,4.2c2.4,2.8,3.5,6.8,3.5,12v2.3h-22.2c0.1,3.2,1,5.8,2.8,7.8s4.1,3,6.9,3
		c2,0,3.6-0.4,5-1.2c1.4-0.8,2.6-1.9,3.6-3.2l3.4,2.7C436.5,455.3,432.4,457.4,426.9,457.4z M426.2,428.1c-2.3,0-4.2,0.8-5.7,2.5
		c-1.5,1.6-2.5,3.9-2.8,6.9h16.4V437c-0.2-2.8-0.9-5-2.3-6.6C430.4,428.9,428.6,428.1,426.2,428.1z"/>
	<path class="st0" d="M459.7,457.4c-4.4,0-8-1.5-10.8-4.4s-4.2-6.8-4.2-11.7v-1c0-3.2,0.6-6.1,1.9-8.7c1.2-2.5,3-4.5,5.2-6
		c2.2-1.4,4.6-2.2,7.2-2.2c4.3,0,7.6,1.4,9.9,4.2c2.4,2.8,3.5,6.8,3.5,12v2.3h-22.2c0.1,3.2,1,5.8,2.8,7.8s4.1,3,6.9,3
		c2,0,3.6-0.4,5-1.2c1.4-0.8,2.6-1.9,3.6-3.2l3.4,2.7C469.3,455.3,465.2,457.4,459.7,457.4z M459,428.1c-2.3,0-4.2,0.8-5.7,2.5
		c-1.5,1.6-2.5,3.9-2.8,6.9h16.4V437c-0.2-2.8-0.9-5-2.3-6.6C463.2,428.9,461.4,428.1,459,428.1z"/>
	<path class="st0" d="M485,456.8h-5.6v-46.4h5.6V456.8z"/>
	<path class="st0" d="M516.9,416.2v7.9h6.1v4.3h-6.1v20.3c0,1.3,0.3,2.3,0.8,3s1.5,1,2.8,1c0.6,0,1.5-0.1,2.7-0.4v4.5
		c-1.5,0.4-2.9,0.6-4.3,0.6c-2.5,0-4.4-0.8-5.7-2.3s-1.9-3.7-1.9-6.4v-20.3h-6v-4.3h6v-7.9L516.9,416.2L516.9,416.2z"/>
	<path class="st0" d="M535.1,428.1c2.5-3,5.7-4.6,9.7-4.6c6.9,0,10.4,3.9,10.5,11.7v21.6h-5.6v-21.6c0-2.4-0.6-4.1-1.6-5.2
		c-1.1-1.1-2.7-1.7-4.9-1.7c-1.8,0-3.4,0.5-4.8,1.5c-1.4,1-2.4,2.2-3.2,3.8v23.3h-5.6v-46.4h5.6v17.6H535.1z"/>
	<path class="st0" d="M577.2,457.4c-4.4,0-8-1.5-10.8-4.4s-4.2-6.8-4.2-11.7v-1c0-3.2,0.6-6.1,1.9-8.7c1.2-2.5,3-4.5,5.2-6
		c2.2-1.4,4.6-2.2,7.2-2.2c4.3,0,7.6,1.4,9.9,4.2c2.4,2.8,3.5,6.8,3.5,12v2.3h-22.2c0.1,3.2,1,5.8,2.8,7.8s4.1,3,6.9,3
		c2,0,3.6-0.4,5-1.2c1.4-0.8,2.6-1.9,3.6-3.2l3.4,2.7C586.8,455.3,582.7,457.4,577.2,457.4z M576.5,428.1c-2.3,0-4.2,0.8-5.7,2.5
		c-1.5,1.6-2.5,3.9-2.8,6.9h16.4V437c-0.2-2.8-0.9-5-2.3-6.6C580.7,428.9,578.8,428.1,576.5,428.1z"/>
	<path class="st0" d="M611.8,415.4c0-0.9,0.3-1.7,0.8-2.3s1.4-0.9,2.5-0.9s1.9,0.3,2.5,0.9s0.8,1.4,0.8,2.3s-0.3,1.7-0.8,2.3
		c-0.6,0.6-1.4,0.9-2.5,0.9s-1.9-0.3-2.5-0.9C612,417.1,611.8,416.3,611.8,415.4z M617.8,456.8h-5.6v-32.7h5.6V456.8z"/>
	<path class="st0" d="M645.8,448.1c0-1.5-0.6-2.7-1.7-3.5c-1.1-0.8-3.1-1.6-6-2.2c-2.8-0.6-5.1-1.3-6.7-2.2c-1.7-0.8-2.9-1.9-3.7-3
		c-0.8-1.2-1.2-2.6-1.2-4.2c0-2.7,1.1-4.9,3.4-6.8c2.3-1.9,5.2-2.8,8.7-2.8c3.7,0,6.7,1,9,2.9s3.5,4.4,3.5,7.3h-5.6
		c0-1.5-0.6-2.8-1.9-4c-1.3-1.1-2.9-1.7-4.9-1.7s-3.6,0.4-4.8,1.3c-1.1,0.9-1.7,2-1.7,3.5c0,1.4,0.5,2.4,1.6,3.1s3,1.3,5.8,2
		s5.1,1.4,6.8,2.2c1.7,0.9,3,1.9,3.9,3.1c0.8,1.2,1.3,2.7,1.3,4.5c0,2.9-1.2,5.3-3.5,7c-2.3,1.8-5.4,2.6-9.1,2.6
		c-2.6,0-4.9-0.5-7-1.4c-2-0.9-3.6-2.2-4.7-3.9c-1.1-1.7-1.7-3.5-1.7-5.4h5.6c0.1,1.9,0.9,3.4,2.3,4.5c1.4,1.1,3.2,1.6,5.5,1.6
		c2.1,0,3.8-0.4,5.1-1.3C645.1,450.7,645.8,449.5,645.8,448.1z"/>
	<path class="st0" d="M664.7,456.8h-5.6v-46.4h5.6V456.8z"/>
	<path class="st0" d="M687.2,457.4c-4.4,0-8-1.5-10.8-4.4s-4.2-6.8-4.2-11.7v-1c0-3.2,0.6-6.1,1.9-8.7c1.2-2.5,3-4.5,5.2-6
		c2.2-1.4,4.6-2.2,7.2-2.2c4.3,0,7.6,1.4,9.9,4.2c2.4,2.8,3.5,6.8,3.5,12v2.3h-22.2c0.1,3.2,1,5.8,2.8,7.8s4.1,3,6.9,3
		c2,0,3.6-0.4,5-1.2c1.4-0.8,2.6-1.9,3.6-3.2l3.4,2.7C696.8,455.3,692.7,457.4,687.2,457.4z M686.6,428.1c-2.3,0-4.2,0.8-5.7,2.5
		c-1.5,1.6-2.5,3.9-2.8,6.9h16.4V437c-0.2-2.8-0.9-5-2.3-6.6C690.7,428.9,688.9,428.1,686.6,428.1z"/>
</g>
<g>
	<g>
		<path class="st0" d="M185.2,362.9h-80v-11.1c2.6-0.2,5.2-0.4,8-0.7c2.7-0.2,5.1-0.7,7.1-1.3c3.1-1,5.5-2.8,7-5.3
			c1.5-2.5,2.3-5.8,2.3-9.8V232.5c0-3.6-0.8-6.9-2.4-9.8c-1.6-3-3.9-5.5-6.8-7.5c-2.1-1.3-5.2-2.5-9.2-3.4c-4-0.9-7.7-1.5-11.1-1.8
			v-11.1l58.5-3.7l2.4,2.4v135.1c0,3.9,0.8,7.2,2.3,9.7c1.5,2.6,3.9,4.5,7.1,5.7c2.4,1,4.8,1.8,7.2,2.4c2.3,0.6,4.9,1,7.8,1.3V362.9
			z M164.2,129.8c0,6.4-2.1,12-6.3,16.7c-4.2,4.8-9.4,7.1-15.5,7.1c-5.7,0-10.7-2.3-14.9-6.8c-4.2-4.5-6.3-9.7-6.3-15.5
			c0-6.2,2.1-11.5,6.3-16.1c4.2-4.6,9.2-6.9,14.9-6.9c6.4,0,11.6,2.2,15.7,6.5C162.1,119.1,164.2,124.1,164.2,129.8z"/>
		<path class="st0" d="M315.1,281.7c4.6,4,8.1,8.7,10.6,13.9c2.5,5.3,3.7,11.7,3.7,19.3c0,15.3-5.7,27.9-17.2,37.6
			c-11.5,9.7-26.4,14.6-44.6,14.6c-9.6,0-18.5-1.7-26.6-5.2c-8.1-3.5-13.9-6.7-17.4-9.6l-3.4,10.9h-12.6l-1.7-57.6h11.6
			c0.9,4.4,2.8,9.5,5.7,15.3c2.9,5.8,6.4,11.1,10.6,15.8c4.4,4.9,9.6,9.1,15.7,12.5c6.1,3.4,13,5.1,20.6,5.1c10.8,0,19-2.5,24.9-7.4
			c5.8-4.9,8.7-11.9,8.7-21c0-4.7-0.9-8.8-2.8-12.2c-1.8-3.4-4.6-6.4-8.1-9c-3.7-2.6-8.2-4.9-13.6-7c-5.4-2.1-11.4-4.1-18-6.1
			c-5.3-1.6-11.1-3.7-17.6-6.5c-6.4-2.7-12-6-16.6-9.7c-4.9-3.9-9-8.7-12.1-14.5c-3.1-5.7-4.7-12.4-4.7-20.2c0-13.6,5-25,15.1-34.4
			c10.1-9.4,23.6-14.1,40.5-14.1c6.5,0,13.1,0.8,19.9,2.5c6.8,1.7,12.3,3.7,16.5,6l3.9-8.7h12.1l2.5,53.3h-11.6
			c-2.4-11.9-7.4-21.6-15.2-29.1c-7.8-7.5-17.3-11.2-28.5-11.2c-9.2,0-16.4,2.3-21.7,6.9c-5.3,4.6-7.9,10.2-7.9,16.8
			c0,5,0.9,9.2,2.6,12.6c1.7,3.4,4.3,6.2,7.8,8.6c3.4,2.2,7.6,4.3,12.7,6.3c5.1,2,11.4,4.2,18.9,6.6c7.4,2.4,14.4,5.1,20.9,8.2
			C305.4,274.4,310.8,277.9,315.1,281.7z"/>
		<path class="st0" d="M432,362.9h-80.8v-11.1c2.6-0.2,5.3-0.5,8.2-0.8c2.9-0.3,5.3-0.7,7.2-1.3c3.1-1,5.5-2.8,7.1-5.3
			c1.6-2.5,2.4-5.8,2.4-9.8v-192c0-4-0.9-7.8-2.6-11.4c-1.7-3.5-4-6.3-6.8-8.3c-2-1.3-5.7-2.6-11.1-3.7c-5.4-1.1-9.7-1.8-12.9-2
			v-10.8l62.3-3.7l2.4,2.5v227.3c0,3.9,0.7,7.1,2.2,9.7c1.5,2.5,3.8,4.5,7.1,5.8c2.5,1.1,4.9,2,7.3,2.5c2.4,0.6,5.1,1,8.1,1.2V362.9
			z"/>
		<path class="st0" d="M600,323.9c-6.9,13.2-16.2,23.7-27.9,31.6c-11.7,7.8-25,11.8-40.2,11.8c-13.3,0-25-2.4-35-7.1
			s-18.3-11.1-24.8-19.2c-6.5-8.1-11.3-17.5-14.5-28.2c-3.2-10.8-4.8-22.1-4.8-34.1c0-10.8,1.7-21.3,5.1-31.7
			c3.4-10.4,8.4-19.7,15-28c6.4-8,14.3-14.4,23.8-19.2c9.5-4.9,20.1-7.3,31.8-7.3c12.1,0,22.5,1.9,31.1,5.7c8.6,3.8,15.6,9,21,15.6
			c5.1,6.3,9,13.7,11.5,22.2c2.5,8.5,3.8,17.8,3.8,27.7v11.1H486.3c0,10.9,1,20.8,3.1,29.6c2.1,8.9,5.3,16.7,9.8,23.4
			c4.4,6.5,10.1,11.6,17.1,15.4c7.1,3.8,15.5,5.6,25.2,5.6c10,0,18.6-2.3,25.8-7c7.2-4.7,14.2-13.1,20.9-25.2L600,323.9z
			 M562.9,260.7c0-6.3-0.5-13-1.6-20.1c-1.1-7.1-2.8-13.1-5.1-17.9c-2.6-5.1-6.1-9.3-10.6-12.6c-4.5-3.2-10.2-4.9-17.3-4.9
			c-11.8,0-21.5,4.9-29.3,14.7c-7.8,9.8-12,23.4-12.7,40.8H562.9z"/>
	</g>
	<g>
		<path class="st0" d="M485.9,124.2c2.6,0.2,4.3,0.2,10,0.2l21.2-0.2l0.6-0.7l2.6,2.3c0.2,0.2,0.4,0.4,0.4,0.7c0,0.3-0.2,0.5-1,0.7
			c-0.7,1.5-2.7,4.6-4.1,6.2c-2.1,2.6-3.8,4.4-6.5,6.6c-0.8-1.1-1.2-1.6-2.3-2.3c0.4-0.3,0.4-0.3,1.9-1.5c2.8-2.3,5.6-5.7,7.6-9.3
			l-18,0.4c-5.7,0.1-7.8,0.2-12.2,0.4L485.9,124.2z M503.9,131.6c0.4,0,0.7,0.3,0.7,0.6c0,0.3-0.2,0.5-0.7,0.9
			c-0.3,5.3-0.6,7.8-1.3,10.2c-1.3,4.8-4.2,8.2-9.3,11.3c-1.3,0.8-2.5,1.4-4.7,2.4c-0.5-1.2-1-2-1.9-2.8c6.5-2.6,10-5.4,11.8-9.2
			c1.3-2.7,2.2-7.6,2.2-12.6c0-0.3,0-0.7,0-1.2L503.9,131.6z"/>
		<path class="st0" d="M544.9,133.8c0.3,0,0.6,0.2,0.6,0.5s-0.2,0.5-0.7,0.8c0,1.2,0,2.5,0,6.2v7.9c0,2.7,0,4.7,0.2,8.4h-3.6
			c0.2-3.1,0.3-4.9,0.3-8.4v-7.9l0-5.6c-2.2,2-2.9,2.7-4.3,3.8c-2.7,2.2-7.6,5.6-10.5,7.4c-0.8-1.3-0.8-1.3-2.2-2.6
			c7.6-4.4,13.5-9,18.3-14.3c3.4-3.8,6.5-8,6.7-9.2l3,1.3c0.3,0.1,0.5,0.3,0.5,0.6c0,0.3-0.3,0.5-0.8,0.7c-3.1,4.5-4.5,6.2-8.5,10.3
			L544.9,133.8z"/>
		<path class="st0" d="M571.9,125.3c0.3,0,0.6,0.2,0.6,0.4c0,0.3-0.3,0.6-0.8,0.9c0,11.3-0.6,15.1-2.7,19.3
			c-1.7,3.5-3.8,5.5-8.9,8.7c-0.5-1-1.1-1.7-2.1-2.4c3.3-1.9,4.8-3,6.3-4.7c3.4-4.1,4.4-8.5,4.4-19c0-1.6,0-2.2-0.1-3.6L571.9,125.3
			z M578.3,151.3c0.4-1.3,0.4-1.3,0.5-8.1v-11.9c0-3.4,0-5.3-0.1-6.5l3.2,0.3c0.5,0,0.7,0.2,0.7,0.5c0,0.2-0.2,0.4-0.8,0.8
			c0,1,0,2.4,0,4.9v17.9c5.2-2.6,9.4-5.8,13.8-10.8c0.6,1.8,0.6,1.8,1.3,3.3c-6.2,5.9-9.1,7.9-14.8,10.8c-0.2,0.6-0.4,0.9-0.7,0.9
			c-0.2,0-0.5-0.1-0.7-0.3L578.3,151.3z"/>
	</g>
</g>
</svg>
